<svg xmlns="http://www.w3.org/2000/svg" xmlns:xlink="http://www.w3.org/1999/xlink" width="495" zoomAndPan="magnify" viewBox="0 0 371.25 425.999984" height="568" preserveAspectRatio="xMidYMid meet" version="1.0"><defs><clipPath id="87c939c19f"><path d="M 0 105 L 341 105 L 341 347 L 0 347 Z M 0 105 " clip-rule="nonzero"/></clipPath><clipPath id="9919d90c41"><path d="M 0 317.792969 L 175.671875 0.113281 L 370.210938 107.691406 L 194.535156 425.371094 Z M 0 317.792969 " clip-rule="nonzero"/></clipPath><clipPath id="eef87d440b"><path d="M 0 317.792969 L 175.671875 0.113281 L 370.210938 107.691406 L 194.535156 425.371094 Z M 0 317.792969 " clip-rule="nonzero"/></clipPath><clipPath id="8b65eba556"><path d="M 3 104 L 339 104 L 339 344 L 3 344 Z M 3 104 " clip-rule="nonzero"/></clipPath><clipPath id="eda030c231"><path d="M 0 317.792969 L 175.671875 0.113281 L 370.210938 107.691406 L 194.535156 425.371094 Z M 0 317.792969 " clip-rule="nonzero"/></clipPath><clipPath id="3dfdae87a6"><path d="M 0 317.792969 L 175.671875 0.113281 L 370.210938 107.691406 L 194.535156 425.371094 Z M 0 317.792969 " clip-rule="nonzero"/></clipPath><clipPath id="7f9199e062"><path d="M 6 104 L 338 104 L 338 341 L 6 341 Z M 6 104 " clip-rule="nonzero"/></clipPath><clipPath id="597f517c09"><path d="M 0 317.792969 L 175.671875 0.113281 L 370.210938 107.691406 L 194.535156 425.371094 Z M 0 317.792969 " clip-rule="nonzero"/></clipPath><clipPath id="6a7c3829bd"><path d="M 0 317.792969 L 175.671875 0.113281 L 370.210938 107.691406 L 194.535156 425.371094 Z M 0 317.792969 " clip-rule="nonzero"/></clipPath><clipPath id="696f607371"><path d="M 9 103 L 338 103 L 338 339 L 9 339 Z M 9 103 " clip-rule="nonzero"/></clipPath><clipPath id="8862c443fa"><path d="M 0 317.792969 L 175.671875 0.113281 L 370.210938 107.691406 L 194.535156 425.371094 Z M 0 317.792969 " clip-rule="nonzero"/></clipPath><clipPath id="9af29c7032"><path d="M 0 317.792969 L 175.671875 0.113281 L 370.210938 107.691406 L 194.535156 425.371094 Z M 0 317.792969 " clip-rule="nonzero"/></clipPath><clipPath id="cc1b2a1c06"><path d="M 12 102 L 338 102 L 338 336 L 12 336 Z M 12 102 " clip-rule="nonzero"/></clipPath><clipPath id="e58ce86d1f"><path d="M 0 317.792969 L 175.671875 0.113281 L 370.210938 107.691406 L 194.535156 425.371094 Z M 0 317.792969 " clip-rule="nonzero"/></clipPath><clipPath id="5ceace8935"><path d="M 0 317.792969 L 175.671875 0.113281 L 370.210938 107.691406 L 194.535156 425.371094 Z M 0 317.792969 " clip-rule="nonzero"/></clipPath><clipPath id="06424500e7"><path d="M 15 101 L 338 101 L 338 333 L 15 333 Z M 15 101 " clip-rule="nonzero"/></clipPath><clipPath id="a5c46955ea"><path d="M 0 317.792969 L 175.671875 0.113281 L 370.210938 107.691406 L 194.535156 425.371094 Z M 0 317.792969 " clip-rule="nonzero"/></clipPath><clipPath id="4b30fed328"><path d="M 0 317.792969 L 175.671875 0.113281 L 370.210938 107.691406 L 194.535156 425.371094 Z M 0 317.792969 " clip-rule="nonzero"/></clipPath><clipPath id="e7503c82ca"><path d="M 19 100 L 338 100 L 338 331 L 19 331 Z M 19 100 " clip-rule="nonzero"/></clipPath><clipPath id="9dfc5fd39e"><path d="M 0 317.792969 L 175.671875 0.113281 L 370.210938 107.691406 L 194.535156 425.371094 Z M 0 317.792969 " clip-rule="nonzero"/></clipPath><clipPath id="40afc7312d"><path d="M 0 317.792969 L 175.671875 0.113281 L 370.210938 107.691406 L 194.535156 425.371094 Z M 0 317.792969 " clip-rule="nonzero"/></clipPath><clipPath id="7eee880f7d"><path d="M 22 99 L 338 99 L 338 331 L 22 331 Z M 22 99 " clip-rule="nonzero"/></clipPath><clipPath id="162b9716d9"><path d="M 0 317.792969 L 175.671875 0.113281 L 370.210938 107.691406 L 194.535156 425.371094 Z M 0 317.792969 " clip-rule="nonzero"/></clipPath><clipPath id="1be1a14e4d"><path d="M 0 317.792969 L 175.671875 0.113281 L 370.210938 107.691406 L 194.535156 425.371094 Z M 0 317.792969 " clip-rule="nonzero"/></clipPath><clipPath id="42423f4582"><path d="M 25 99 L 338 99 L 338 332 L 25 332 Z M 25 99 " clip-rule="nonzero"/></clipPath><clipPath id="506c751163"><path d="M 0 317.792969 L 175.671875 0.113281 L 370.210938 107.691406 L 194.535156 425.371094 Z M 0 317.792969 " clip-rule="nonzero"/></clipPath><clipPath id="8dea61f05c"><path d="M 0 317.792969 L 175.671875 0.113281 L 370.210938 107.691406 L 194.535156 425.371094 Z M 0 317.792969 " clip-rule="nonzero"/></clipPath><clipPath id="6f9572b4c3"><path d="M 28 98 L 339 98 L 339 334 L 28 334 Z M 28 98 " clip-rule="nonzero"/></clipPath><clipPath id="da9af36a72"><path d="M 0 317.792969 L 175.671875 0.113281 L 370.210938 107.691406 L 194.535156 425.371094 Z M 0 317.792969 " clip-rule="nonzero"/></clipPath><clipPath id="f2f94d29fc"><path d="M 0 317.792969 L 175.671875 0.113281 L 370.210938 107.691406 L 194.535156 425.371094 Z M 0 317.792969 " clip-rule="nonzero"/></clipPath><clipPath id="b3a835503b"><path d="M 31 97 L 339 97 L 339 336 L 31 336 Z M 31 97 " clip-rule="nonzero"/></clipPath><clipPath id="b76298aa1c"><path d="M 0 317.792969 L 175.671875 0.113281 L 370.210938 107.691406 L 194.535156 425.371094 Z M 0 317.792969 " clip-rule="nonzero"/></clipPath><clipPath id="77e6d138aa"><path d="M 0 317.792969 L 175.671875 0.113281 L 370.210938 107.691406 L 194.535156 425.371094 Z M 0 317.792969 " clip-rule="nonzero"/></clipPath><clipPath id="07c3c363c6"><path d="M 35 96 L 339 96 L 339 338 L 35 338 Z M 35 96 " clip-rule="nonzero"/></clipPath><clipPath id="70d4c78549"><path d="M 0 317.792969 L 175.671875 0.113281 L 370.210938 107.691406 L 194.535156 425.371094 Z M 0 317.792969 " clip-rule="nonzero"/></clipPath><clipPath id="979dc3d864"><path d="M 0 317.792969 L 175.671875 0.113281 L 370.210938 107.691406 L 194.535156 425.371094 Z M 0 317.792969 " clip-rule="nonzero"/></clipPath><clipPath id="ea4e13d23c"><path d="M 38 95 L 339 95 L 339 339 L 38 339 Z M 38 95 " clip-rule="nonzero"/></clipPath><clipPath id="28f90f3448"><path d="M 0 317.792969 L 175.671875 0.113281 L 370.210938 107.691406 L 194.535156 425.371094 Z M 0 317.792969 " clip-rule="nonzero"/></clipPath><clipPath id="4a954d73f4"><path d="M 0 317.792969 L 175.671875 0.113281 L 370.210938 107.691406 L 194.535156 425.371094 Z M 0 317.792969 " clip-rule="nonzero"/></clipPath><clipPath id="e38cc7c2d8"><path d="M 41 95 L 339 95 L 339 341 L 41 341 Z M 41 95 " clip-rule="nonzero"/></clipPath><clipPath id="eaecd97d2f"><path d="M 0 317.792969 L 175.671875 0.113281 L 370.210938 107.691406 L 194.535156 425.371094 Z M 0 317.792969 " clip-rule="nonzero"/></clipPath><clipPath id="849289c635"><path d="M 0 317.792969 L 175.671875 0.113281 L 370.210938 107.691406 L 194.535156 425.371094 Z M 0 317.792969 " clip-rule="nonzero"/></clipPath><clipPath id="f65947ed87"><path d="M 44 94 L 339 94 L 339 343 L 44 343 Z M 44 94 " clip-rule="nonzero"/></clipPath><clipPath id="1416e26533"><path d="M 0 317.792969 L 175.671875 0.113281 L 370.210938 107.691406 L 194.535156 425.371094 Z M 0 317.792969 " clip-rule="nonzero"/></clipPath><clipPath id="8751a84dba"><path d="M 0 317.792969 L 175.671875 0.113281 L 370.210938 107.691406 L 194.535156 425.371094 Z M 0 317.792969 " clip-rule="nonzero"/></clipPath><clipPath id="e56b270a14"><path d="M 47 93 L 340 93 L 340 345 L 47 345 Z M 47 93 " clip-rule="nonzero"/></clipPath><clipPath id="a3c29b541a"><path d="M 0 317.792969 L 175.671875 0.113281 L 370.210938 107.691406 L 194.535156 425.371094 Z M 0 317.792969 " clip-rule="nonzero"/></clipPath><clipPath id="5d8dadfb55"><path d="M 0 317.792969 L 175.671875 0.113281 L 370.210938 107.691406 L 194.535156 425.371094 Z M 0 317.792969 " clip-rule="nonzero"/></clipPath><clipPath id="8cf24f6c9d"><path d="M 50 92 L 340 92 L 340 346 L 50 346 Z M 50 92 " clip-rule="nonzero"/></clipPath><clipPath id="6e5a69ac3b"><path d="M 0 317.792969 L 175.671875 0.113281 L 370.210938 107.691406 L 194.535156 425.371094 Z M 0 317.792969 " clip-rule="nonzero"/></clipPath><clipPath id="42e30100a1"><path d="M 0 317.792969 L 175.671875 0.113281 L 370.210938 107.691406 L 194.535156 425.371094 Z M 0 317.792969 " clip-rule="nonzero"/></clipPath><clipPath id="f564a711e0"><path d="M 54 91 L 340 91 L 340 348 L 54 348 Z M 54 91 " clip-rule="nonzero"/></clipPath><clipPath id="081d15074d"><path d="M 0 317.792969 L 175.671875 0.113281 L 370.210938 107.691406 L 194.535156 425.371094 Z M 0 317.792969 " clip-rule="nonzero"/></clipPath><clipPath id="7858354450"><path d="M 0 317.792969 L 175.671875 0.113281 L 370.210938 107.691406 L 194.535156 425.371094 Z M 0 317.792969 " clip-rule="nonzero"/></clipPath><clipPath id="9f46fb92b8"><path d="M 57 91 L 340 91 L 340 350 L 57 350 Z M 57 91 " clip-rule="nonzero"/></clipPath><clipPath id="d9578a1e66"><path d="M 0 317.792969 L 175.671875 0.113281 L 370.210938 107.691406 L 194.535156 425.371094 Z M 0 317.792969 " clip-rule="nonzero"/></clipPath><clipPath id="c59e8221a1"><path d="M 0 317.792969 L 175.671875 0.113281 L 370.210938 107.691406 L 194.535156 425.371094 Z M 0 317.792969 " clip-rule="nonzero"/></clipPath></defs><g clip-path="url(#87c939c19f)"><g clip-path="url(#9919d90c41)"><g clip-path="url(#eef87d440b)"><path fill="#450aae" d="M 337.128906 166.714844 C 334.042969 172.292969 329.050781 172.351562 321.773438 172.4375 C 311.695312 172.558594 297.898438 172.722656 278.976562 187.003906 C 274.851562 190.117188 272.753906 193.933594 270.726562 197.621094 C 268.191406 202.222656 265.808594 206.566406 259.773438 208.785156 C 249.445312 212.585938 239.421875 217.070312 229.699219 222.230469 C 228.492188 222.871094 227.875 223.5625 227.8125 224.347656 C 227.675781 226.105469 230.371094 228.128906 233.222656 230.269531 C 236.832031 232.980469 240.566406 235.785156 239.90625 238.78125 C 239.167969 242.136719 232.773438 245.058594 220.351562 247.714844 C 216.574219 248.519531 214.011719 250.171875 212.511719 252.757812 C 208.742188 259.28125 212.507812 270.976562 216.496094 283.363281 C 220.585938 296.070312 225.21875 310.476562 222.34375 321.542969 C 220.875 327.1875 217.808594 332.417969 213.46875 336.671875 C 209.140625 340.921875 203.933594 343.816406 198.414062 345.046875 C 188.929688 347.164062 178.367188 345.996094 165.171875 341.371094 C 150.949219 336.386719 137.515625 329.019531 124.523438 321.890625 C 120.371094 319.617188 116.082031 317.261719 111.832031 315.023438 C 95.726562 306.539062 76.457031 297.691406 55.625 296.40625 C 33.523438 295.042969 12.789062 303.066406 0.160156 317.875 L 0.0195312 317.753906 C 6.5 310.15625 15.296875 304.183594 25.457031 300.484375 C 34.867188 297.058594 45.304688 295.582031 55.636719 296.222656 C 76.503906 297.507812 95.796875 306.367188 111.917969 314.859375 C 116.171875 317.101562 120.460938 319.453125 124.613281 321.730469 C 137.597656 328.851562 151.023438 336.214844 165.234375 341.195312 C 178.394531 345.808594 188.925781 346.976562 198.375 344.867188 C 209.621094 342.355469 219.183594 332.964844 222.164062 321.496094 C 225.027344 310.480469 220.402344 296.105469 216.320312 283.417969 C 212.320312 270.992188 208.542969 259.257812 212.355469 252.667969 C 213.878906 250.03125 216.484375 248.351562 220.3125 247.53125 C 232.65625 244.894531 239.007812 242.015625 239.726562 238.738281 C 240.363281 235.859375 236.511719 232.964844 233.109375 230.414062 C 230.21875 228.242188 227.484375 226.191406 227.632812 224.332031 C 227.699219 223.476562 228.347656 222.738281 229.613281 222.066406 C 239.34375 216.902344 249.375 212.414062 259.710938 208.609375 C 265.679688 206.414062 268.050781 202.101562 270.566406 197.527344 C 272.601562 193.824219 274.710938 189.992188 278.863281 186.855469 C 287.257812 180.519531 295.390625 176.390625 303.726562 174.230469 C 310.847656 172.382812 316.90625 172.308594 321.773438 172.253906 C 329.578125 172.160156 334.734375 172.097656 337.6875 165.136719 C 341.402344 156.371094 339.566406 144.140625 337.789062 132.3125 C 336.308594 122.457031 334.914062 113.144531 336.441406 105.621094 L 336.621094 105.65625 C 335.097656 113.152344 336.496094 122.445312 337.972656 132.285156 C 339.753906 144.140625 341.59375 156.394531 337.859375 165.207031 C 337.640625 165.722656 337.398438 166.226562 337.128906 166.714844 Z M 337.128906 166.714844 " fill-opacity="1" fill-rule="nonzero"/></g></g></g><g clip-path="url(#8b65eba556)"><g clip-path="url(#eda030c231)"><g clip-path="url(#3dfdae87a6)"><path fill="#450aae" d="M 335.371094 165.316406 C 332.015625 171.382812 326.484375 171.726562 318.980469 172.195312 C 311.6875 172.652344 302.609375 173.21875 291.417969 178.910156 C 287.539062 180.878906 283.320312 183.875 278.515625 188.078125 C 275.332031 190.839844 273.460938 194.066406 271.910156 197.148438 C 271.644531 197.671875 271.386719 198.199219 271.128906 198.71875 C 268.769531 203.511719 266.542969 208.039062 260.613281 210.484375 C 252.753906 213.726562 244.910156 217.285156 237.300781 221.0625 C 235.042969 222.183594 232.78125 223.339844 230.574219 224.507812 C 229.261719 225.199219 228.574219 225.953125 228.480469 226.808594 C 228.28125 228.550781 230.574219 230.523438 233 232.609375 C 236.039062 235.222656 239.179688 237.925781 238.457031 240.8125 C 237.605469 244.203125 231.285156 247.160156 219.140625 249.855469 C 215.496094 250.652344 213.015625 252.261719 211.558594 254.769531 C 211.523438 254.828125 211.492188 254.886719 211.460938 254.945312 C 207.980469 261.238281 211.410156 272.269531 215.042969 283.945312 C 218.78125 295.964844 223.015625 309.582031 220.203125 320.050781 C 217.246094 331 208.007812 339.984375 197.21875 342.40625 C 188.164062 344.433594 178.0625 343.359375 165.433594 339.023438 C 152.488281 334.5625 140.21875 327.96875 128.355469 321.589844 C 123.785156 319.132812 119.058594 316.59375 114.359375 314.207031 C 99.171875 306.507812 79.019531 297.542969 57.777344 296.605469 C 55.585938 296.515625 53.378906 296.527344 51.214844 296.640625 C 31.523438 297.679688 14.078125 306.0625 3.347656 319.628906 L 3.203125 319.515625 C 8.757812 312.492188 16.019531 306.886719 24.777344 302.855469 C 32.820312 299.15625 41.957031 296.945312 51.203125 296.453125 C 53.375 296.34375 55.585938 296.332031 57.78125 296.421875 C 79.0625 297.359375 99.238281 306.332031 114.441406 314.042969 C 119.144531 316.429688 123.871094 318.972656 128.441406 321.429688 C 140.300781 327.800781 152.5625 334.394531 165.492188 338.851562 C 178.089844 343.175781 188.15625 344.246094 197.175781 342.222656 C 207.902344 339.820312 217.082031 330.886719 220.023438 320.003906 C 222.824219 309.589844 218.59375 295.996094 214.863281 284 C 211.222656 272.289062 207.78125 261.214844 211.296875 254.855469 C 211.332031 254.792969 211.363281 254.734375 211.398438 254.675781 C 212.882812 252.121094 215.402344 250.484375 219.097656 249.675781 C 231.171875 246.996094 237.445312 244.082031 238.277344 240.765625 C 238.972656 237.992188 235.875 235.328125 232.878906 232.75 C 230.414062 230.628906 228.085938 228.628906 228.292969 226.789062 C 228.398438 225.867188 229.117188 225.066406 230.484375 224.34375 C 232.695312 223.175781 234.957031 222.015625 237.21875 220.894531 C 244.828125 217.117188 252.675781 213.558594 260.542969 210.3125 C 266.40625 207.894531 268.617188 203.398438 270.960938 198.640625 C 271.21875 198.117188 271.476562 197.589844 271.742188 197.0625 C 273.300781 193.96875 275.1875 190.722656 278.394531 187.9375 C 283.207031 183.726562 287.441406 180.722656 291.335938 178.746094 C 302.558594 173.035156 311.65625 172.46875 318.96875 172.011719 C 326.835938 171.519531 332.527344 171.164062 335.757812 164.144531 C 336.832031 161.808594 337.554688 159.171875 337.957031 156.09375 C 338.933594 148.699219 337.878906 140.085938 336.855469 131.757812 C 335.625 121.699219 334.460938 112.203125 336.613281 104.816406 L 336.792969 104.871094 C 334.648438 112.21875 335.8125 121.699219 337.039062 131.734375 C 338.0625 140.074219 339.117188 148.699219 338.140625 156.117188 C 337.734375 159.214844 337.007812 161.867188 335.925781 164.21875 C 335.746094 164.605469 335.5625 164.972656 335.371094 165.316406 Z M 335.371094 165.316406 " fill-opacity="1" fill-rule="nonzero"/></g></g></g><g clip-path="url(#7f9199e062)"><g clip-path="url(#597f517c09)"><g clip-path="url(#6a7c3829bd)"><path fill="#450aae" d="M 333.625 163.929688 C 330.03125 170.433594 324.203125 171.085938 316.238281 171.984375 C 309.117188 172.785156 300.253906 173.78125 289.875 179.441406 C 286.511719 181.265625 282.976562 184.167969 278.054688 189.148438 C 275.136719 192.101562 273.414062 195.496094 272.117188 198.429688 C 271.917969 198.871094 271.726562 199.316406 271.535156 199.753906 C 269.351562 204.765625 267.289062 209.5 261.453125 212.183594 C 253.25 215.957031 245.4375 219.699219 238.234375 223.300781 C 235.925781 224.457031 233.644531 225.628906 231.445312 226.785156 C 230.023438 227.535156 229.257812 228.351562 229.113281 229.28125 C 228.847656 231.011719 230.75 232.941406 232.765625 234.980469 C 235.261719 237.507812 237.839844 240.125 237.03125 242.898438 C 236.945312 243.183594 236.832031 243.460938 236.683594 243.722656 C 234.984375 246.796875 228.824219 249.511719 217.925781 251.996094 C 214.417969 252.796875 212.023438 254.367188 210.601562 256.800781 C 207.09375 262.816406 210.246094 273.371094 213.589844 284.542969 C 216.972656 295.863281 220.808594 308.691406 218.0625 318.558594 C 215.140625 328.925781 206.285156 337.445312 196.019531 339.761719 C 184.6875 342.316406 173.285156 339.222656 165.691406 336.679688 C 153.886719 332.6875 142.660156 326.773438 131.808594 321.054688 C 126.941406 318.492188 121.914062 315.84375 116.882812 313.394531 C 102.757812 306.511719 81.488281 297.304688 59.925781 296.804688 C 57.738281 296.757812 55.554688 296.820312 53.375 296.992188 C 33.769531 298.59375 16.699219 307.484375 6.535156 321.386719 L 6.386719 321.277344 C 11.625 314.109375 18.636719 308.296875 27.226562 304 C 35.132812 300.046875 44.167969 297.558594 53.359375 296.808594 C 55.546875 296.636719 57.734375 296.574219 59.929688 296.621094 C 81.527344 297.121094 102.824219 306.339844 116.964844 313.226562 C 121.996094 315.679688 127.027344 318.328125 131.894531 320.890625 C 142.742188 326.605469 153.957031 332.515625 165.75 336.503906 C 173.320312 339.042969 184.691406 342.125 195.976562 339.582031 C 206.179688 337.28125 214.984375 328.8125 217.886719 318.507812 C 220.617188 308.695312 216.789062 295.890625 213.410156 284.597656 C 210.058594 273.386719 206.894531 262.804688 210.441406 256.710938 C 211.890625 254.230469 214.324219 252.628906 217.886719 251.816406 C 229.671875 249.128906 235.875 246.191406 236.855469 242.847656 C 237.632812 240.175781 235.09375 237.601562 232.632812 235.113281 C 230.585938 233.035156 228.648438 231.074219 228.933594 229.253906 C 229.085938 228.261719 229.878906 227.398438 231.359375 226.621094 C 233.558594 225.464844 235.84375 224.292969 238.148438 223.136719 C 245.355469 219.53125 253.171875 215.789062 261.375 212.015625 C 267.148438 209.359375 269.195312 204.660156 271.363281 199.683594 C 271.558594 199.242188 271.75 198.796875 271.945312 198.355469 C 273.253906 195.40625 274.984375 191.992188 277.921875 189.019531 C 282.855469 184.023438 286.402344 181.113281 289.785156 179.277344 C 300.195312 173.601562 309.078125 172.601562 316.214844 171.800781 C 324.398438 170.878906 330.3125 170.21875 333.824219 163.148438 C 334.988281 160.816406 335.792969 158.199219 336.289062 155.148438 C 337.480469 147.808594 336.671875 139.339844 335.890625 131.144531 C 334.914062 120.902344 333.992188 111.230469 336.789062 104.011719 L 336.960938 104.078125 C 334.179688 111.257812 335.101562 120.910156 336.074219 131.128906 C 336.859375 139.332031 337.667969 147.816406 336.46875 155.179688 C 335.972656 158.25 335.160156 160.882812 333.992188 163.230469 C 333.871094 163.472656 333.75 163.703125 333.625 163.929688 Z M 333.625 163.929688 " fill-opacity="1" fill-rule="nonzero"/></g></g></g><g clip-path="url(#696f607371)"><g clip-path="url(#8862c443fa)"><g clip-path="url(#9af29c7032)"><path fill="#450aae" d="M 331.933594 162.476562 C 328.078125 169.445312 321.652344 170.492188 313.539062 171.816406 C 306.589844 172.949219 297.941406 174.359375 288.328125 179.972656 C 284.898438 181.976562 281.679688 185.378906 277.59375 190.21875 C 274.960938 193.34375 273.449219 196.769531 272.324219 199.710938 C 272.195312 200.046875 272.070312 200.378906 271.941406 200.710938 C 269.945312 205.972656 268.058594 210.941406 262.292969 213.882812 C 257.375 216.394531 252.089844 219.046875 246.980469 221.617188 C 244.375 222.921875 241.773438 224.230469 239.167969 225.542969 C 236.800781 226.738281 234.496094 227.921875 232.320312 229.0625 C 230.777344 229.871094 229.929688 230.753906 229.71875 231.765625 C 229.367188 233.472656 230.890625 235.351562 232.503906 237.339844 C 234.484375 239.777344 236.53125 242.300781 235.625 244.96875 C 234.449219 248.414062 228.261719 251.414062 216.714844 254.140625 C 213.34375 254.933594 211.03125 256.464844 209.652344 258.820312 C 209.613281 258.886719 209.574219 258.953125 209.539062 259.015625 C 206.339844 264.804688 209.15625 274.664062 212.136719 285.09375 C 215.328125 296.253906 218.628906 307.792969 215.921875 317.066406 C 213.066406 326.84375 204.585938 334.902344 194.820312 337.117188 C 184.050781 339.558594 173.1875 336.695312 165.953125 334.332031 C 155.171875 330.761719 144.886719 325.460938 134.945312 320.332031 C 129.890625 317.726562 124.664062 315.027344 119.410156 312.578125 C 97.078125 302.160156 78.324219 297.066406 62.074219 297.007812 C 59.886719 297 57.707031 297.113281 55.535156 297.347656 C 36.292969 299.476562 19.167969 309.117188 9.722656 323.140625 L 9.570312 323.039062 C 14.488281 315.730469 21.253906 309.710938 29.671875 305.148438 C 37.4375 300.933594 46.375 298.175781 55.511719 297.164062 C 57.691406 296.929688 59.878906 296.816406 62.074219 296.820312 C 78.351562 296.882812 97.128906 301.984375 119.484375 312.410156 C 124.742188 314.863281 129.972656 317.558594 135.027344 320.167969 C 144.964844 325.292969 155.242188 330.59375 166.007812 334.15625 C 173.222656 336.515625 184.054688 339.367188 194.777344 336.9375 C 204.484375 334.738281 212.90625 326.730469 215.742188 317.015625 C 218.433594 307.792969 215.144531 296.28125 211.960938 285.144531 C 208.96875 274.675781 206.140625 264.78125 209.375 258.925781 C 209.414062 258.859375 209.449219 258.792969 209.492188 258.726562 C 210.898438 256.328125 213.246094 254.765625 216.671875 253.957031 C 228.152344 251.25 234.292969 248.289062 235.449219 244.90625 C 236.324219 242.339844 234.308594 239.855469 232.359375 237.457031 C 230.71875 235.433594 229.167969 233.523438 229.539062 231.726562 C 229.757812 230.660156 230.640625 229.734375 232.230469 228.898438 C 234.410156 227.757812 236.714844 226.574219 239.082031 225.378906 C 241.679688 224.070312 244.285156 222.761719 246.894531 221.449219 C 252.007812 218.882812 257.292969 216.230469 262.210938 213.71875 C 267.910156 210.808594 269.785156 205.871094 271.769531 200.644531 C 271.894531 200.3125 272.023438 199.980469 272.148438 199.648438 C 273.285156 196.691406 274.796875 193.246094 277.453125 190.101562 C 281.550781 185.246094 284.78125 181.832031 288.234375 179.816406 C 297.875 174.183594 306.542969 172.769531 313.507812 171.632812 C 321.660156 170.304688 328.105469 169.242188 331.898438 162.15625 C 333.144531 159.820312 334.035156 157.21875 334.617188 154.207031 C 336.027344 146.910156 335.453125 138.5625 334.898438 130.488281 C 334.183594 120.074219 333.507812 110.238281 336.964844 103.207031 L 337.128906 103.289062 C 333.695312 110.273438 334.371094 120.085938 335.082031 130.476562 C 335.636719 138.558594 336.210938 146.921875 334.800781 154.242188 C 334.214844 157.273438 333.316406 159.890625 332.058594 162.242188 C 332.019531 162.320312 331.976562 162.398438 331.933594 162.476562 Z M 331.933594 162.476562 " fill-opacity="1" fill-rule="nonzero"/></g></g></g><g clip-path="url(#cc1b2a1c06)"><g clip-path="url(#e58ce86d1f)"><g clip-path="url(#5ceace8935)"><path fill="#450aae" d="M 330.308594 160.933594 C 330.25 161.039062 330.191406 161.148438 330.128906 161.253906 C 326.023438 168.425781 319.367188 169.84375 310.941406 171.640625 C 303.789062 173.167969 295.683594 174.894531 286.785156 180.503906 C 283.480469 182.589844 280.582031 186.453125 277.132812 191.289062 C 274.773438 194.601562 273.433594 198.214844 272.53125 200.996094 L 272.347656 201.554688 C 270.550781 207.113281 268.847656 212.359375 263.136719 215.585938 C 255.148438 220.089844 246.164062 224.707031 240.101562 227.785156 C 237.609375 229.050781 235.351562 230.214844 233.191406 231.34375 C 231.53125 232.207031 230.585938 233.160156 230.292969 234.25 C 229.835938 235.9375 230.996094 237.761719 232.222656 239.699219 C 233.714844 242.054688 235.261719 244.492188 234.230469 247.058594 C 232.8125 250.570312 226.863281 253.5 215.503906 256.28125 C 212.265625 257.074219 210.035156 258.566406 208.695312 260.84375 C 205.449219 266.34375 207.988281 275.730469 210.679688 285.664062 C 213.507812 296.105469 216.429688 306.898438 213.78125 315.574219 C 210.976562 324.765625 202.875 332.363281 193.625 334.476562 C 185.796875 336.257812 177.089844 335.46875 166.214844 331.988281 C 156.34375 328.824219 146.917969 324.0625 137.796875 319.453125 C 132.648438 316.851562 127.320312 314.160156 121.9375 311.765625 C 99.675781 301.855469 80.257812 296.960938 64.226562 297.207031 C 62.039062 297.242188 59.863281 297.410156 57.695312 297.707031 C 38.550781 300.328125 21.808594 310.496094 12.910156 324.898438 L 12.753906 324.800781 C 21.679688 310.351562 38.472656 300.152344 57.671875 297.519531 C 59.84375 297.222656 62.03125 297.058594 64.222656 297.023438 C 80.28125 296.773438 99.722656 301.675781 122.011719 311.59375 C 127.402344 313.992188 132.726562 316.683594 137.878906 319.289062 C 146.992188 323.894531 156.417969 328.652344 166.269531 331.808594 C 177.113281 335.28125 185.789062 336.070312 193.582031 334.292969 C 202.773438 332.195312 210.820312 324.652344 213.605469 315.523438 C 216.238281 306.894531 213.324219 296.125 210.5 285.714844 C 207.800781 275.738281 205.246094 266.3125 208.535156 260.75 C 209.90625 258.425781 212.171875 256.90625 215.460938 256.101562 C 226.605469 253.375 232.691406 250.390625 234.058594 246.988281 C 235.054688 244.507812 233.535156 242.113281 232.066406 239.796875 C 230.820312 237.828125 229.640625 235.964844 230.113281 234.203125 C 230.421875 233.058594 231.398438 232.070312 233.105469 231.179688 C 235.265625 230.050781 237.527344 228.886719 240.015625 227.621094 C 246.078125 224.542969 255.058594 219.929688 263.042969 215.421875 C 268.695312 212.234375 270.382812 207.019531 272.171875 201.5 L 272.355469 200.9375 C 273.261719 198.148438 274.609375 194.515625 276.984375 191.183594 C 280.441406 186.328125 283.355469 182.449219 286.6875 180.347656 C 295.613281 174.722656 303.738281 172.992188 310.902344 171.460938 C 319.285156 169.671875 325.90625 168.261719 329.96875 161.160156 C 331.363281 158.683594 332.355469 156.050781 332.949219 153.265625 C 334.570312 145.996094 334.222656 137.757812 333.882812 129.785156 C 333.4375 119.210938 333.011719 109.222656 337.140625 102.402344 L 337.300781 102.5 C 333.199219 109.269531 333.621094 119.230469 334.070312 129.777344 C 334.40625 137.761719 334.757812 146.015625 333.128906 153.304688 C 332.558594 155.984375 331.617188 158.527344 330.308594 160.933594 Z M 330.308594 160.933594 " fill-opacity="1" fill-rule="nonzero"/></g></g></g><g clip-path="url(#06424500e7)"><g clip-path="url(#a5c46955ea)"><g clip-path="url(#4b30fed328)"><path fill="#450aae" d="M 328.761719 159.289062 C 328.578125 159.617188 328.390625 159.941406 328.195312 160.265625 C 323.84375 167.398438 316.710938 169.28125 308.449219 171.457031 C 301.429688 173.308594 293.480469 175.402344 285.238281 181.035156 C 282.125 183.164062 279.476562 187.632812 276.671875 192.359375 C 274.605469 195.84375 273.484375 199.488281 272.738281 202.277344 C 271.15625 208.175781 269.664062 213.75 263.976562 217.285156 C 257.820312 221.109375 250.316406 225.277344 241.035156 230.027344 C 238.320312 231.417969 236.105469 232.558594 234.066406 233.621094 C 229.226562 236.132812 230.472656 238.878906 231.917969 242.058594 C 232.953125 244.34375 234.027344 246.703125 232.839844 249.183594 C 232.789062 249.28125 232.738281 249.378906 232.683594 249.476562 C 230.8125 252.863281 224.949219 255.710938 214.289062 258.421875 C 209.085938 259.746094 206.523438 262.9375 206.226562 268.457031 C 205.957031 273.410156 207.539062 279.636719 209.210938 286.230469 C 211.679688 295.949219 214.230469 306 211.640625 314.085938 C 208.886719 322.6875 201.164062 329.820312 192.425781 331.832031 C 185.011719 333.53125 176.765625 332.835938 166.472656 329.640625 C 157.445312 326.835938 148.792969 322.566406 140.421875 318.4375 C 135.25 315.886719 129.902344 313.25 124.460938 310.949219 C 101.898438 301.40625 82.355469 296.851562 66.375 297.40625 C 64.1875 297.484375 62.015625 297.703125 59.855469 298.058594 C 40.769531 301.230469 24.410156 311.917969 16.097656 326.652344 L 15.9375 326.5625 C 20.160156 319.074219 26.601562 312.453125 34.5625 307.421875 C 42.0625 302.675781 50.796875 299.375 59.824219 297.875 C 61.992188 297.515625 64.175781 297.300781 66.371094 297.222656 C 82.375 296.664062 101.945312 301.226562 124.535156 310.777344 C 129.976562 313.082031 135.328125 315.722656 140.503906 318.273438 C 148.867188 322.398438 157.511719 326.664062 166.527344 329.464844 C 176.789062 332.652344 185.003906 333.347656 192.382812 331.652344 C 201.058594 329.65625 208.730469 322.574219 211.464844 314.027344 C 214.039062 305.996094 211.496094 295.96875 209.035156 286.277344 C 207.355469 279.671875 205.773438 273.429688 206.042969 268.449219 C 206.34375 262.835938 208.949219 259.59375 214.246094 258.246094 C 225.007812 255.507812 231.039062 252.519531 232.671875 249.101562 C 233.824219 246.703125 232.769531 244.378906 231.75 242.132812 C 230.328125 239.003906 228.984375 236.050781 233.980469 233.457031 C 236.019531 232.394531 238.234375 231.253906 240.949219 229.863281 C 250.226562 225.113281 257.726562 220.949219 263.878906 217.128906 C 269.503906 213.628906 270.988281 208.09375 272.558594 202.230469 C 273.308594 199.429688 274.4375 195.769531 276.511719 192.265625 C 279.328125 187.519531 281.988281 183.035156 285.136719 180.882812 C 293.402344 175.234375 301.371094 173.132812 308.398438 171.28125 C 316.625 169.113281 323.726562 167.242188 328.039062 160.167969 C 329.515625 157.71875 330.597656 155.105469 331.277344 152.324219 C 333.113281 145.078125 332.980469 136.925781 332.847656 129.046875 C 332.667969 118.320312 332.5 108.191406 337.316406 101.597656 L 337.464844 101.707031 C 332.6875 108.246094 332.855469 118.347656 333.03125 129.042969 C 333.164062 136.9375 333.300781 145.097656 331.453125 152.371094 C 330.859375 154.792969 329.960938 157.097656 328.761719 159.289062 Z M 328.761719 159.289062 " fill-opacity="1" fill-rule="nonzero"/></g></g></g><g clip-path="url(#e7503c82ca)"><g clip-path="url(#9dfc5fd39e)"><g clip-path="url(#40afc7312d)"><path fill="#450aae" d="M 327.238281 157.644531 C 326.933594 158.203125 326.605469 158.746094 326.261719 159.277344 C 321.6875 166.34375 314.453125 168.613281 306.078125 171.246094 C 299.160156 173.417969 291.324219 175.878906 283.695312 181.566406 C 280.949219 183.613281 278.792969 188.082031 276.511719 192.808594 L 276.210938 193.429688 C 274.425781 197.125 273.488281 200.980469 272.945312 203.558594 C 271.558594 210.101562 270.078125 215.390625 264.816406 218.984375 C 258.832031 223.066406 251.144531 227.539062 241.964844 232.269531 L 240.632812 232.957031 C 238.730469 233.9375 236.832031 234.917969 234.9375 235.898438 C 229.96875 238.46875 230.753906 241.359375 231.585938 244.417969 C 232.191406 246.648438 232.816406 248.957031 231.429688 251.367188 C 229.417969 254.855469 223.585938 257.78125 213.078125 260.566406 C 208.144531 261.875 205.664062 264.90625 205.277344 270.113281 C 204.925781 274.785156 206.292969 280.617188 207.742188 286.792969 C 209.851562 295.792969 212.03125 305.101562 209.503906 312.59375 C 208.164062 316.550781 205.726562 320.21875 202.449219 323.195312 C 199.171875 326.171875 195.289062 328.246094 191.226562 329.1875 C 184.230469 330.808594 176.445312 330.207031 166.734375 327.296875 C 158.476562 324.820312 150.535156 321.007812 142.859375 317.320312 C 137.726562 314.855469 132.417969 312.304688 126.988281 310.136719 C 111.222656 303.828125 88.28125 296.535156 68.527344 297.609375 C 66.339844 297.726562 64.167969 297.996094 62.015625 298.414062 C 42.980469 302.132812 27.007812 313.34375 19.285156 328.410156 L 19.117188 328.324219 C 23.03125 320.699219 29.214844 313.867188 37.007812 308.566406 C 44.363281 303.558594 53 299.988281 61.980469 298.230469 C 64.140625 297.8125 66.320312 297.542969 68.515625 297.421875 C 88.304688 296.347656 111.273438 303.648438 127.054688 309.960938 C 132.492188 312.136719 137.800781 314.6875 142.9375 317.152344 C 150.609375 320.835938 158.542969 324.644531 166.789062 327.117188 C 176.46875 330.019531 184.21875 330.621094 191.183594 329.007812 C 199.347656 327.117188 206.640625 320.496094 209.328125 312.535156 C 211.839844 305.09375 209.664062 295.808594 207.558594 286.832031 C 206.109375 280.644531 204.738281 274.796875 205.089844 270.101562 C 205.484375 264.804688 208.007812 261.71875 213.03125 260.386719 C 223.347656 257.652344 229.3125 254.671875 231.273438 251.273438 C 232.621094 248.933594 232.003906 246.660156 231.410156 244.464844 C 230.554688 241.332031 229.75 238.375 234.851562 235.734375 C 236.75 234.753906 238.648438 233.773438 240.550781 232.792969 L 241.882812 232.105469 C 251.050781 227.375 258.734375 222.910156 264.710938 218.832031 C 269.917969 215.277344 271.386719 210.023438 272.765625 203.523438 C 273.3125 200.933594 274.25 197.0625 276.046875 193.351562 L 276.347656 192.726562 C 278.738281 187.773438 280.804688 183.496094 283.585938 181.421875 C 291.238281 175.710938 299.09375 173.246094 306.023438 171.070312 C 314.367188 168.449219 321.570312 166.1875 326.109375 159.175781 C 327.664062 156.753906 328.832031 154.15625 329.605469 151.382812 C 331.660156 144.152344 331.730469 136.078125 331.796875 128.269531 C 331.890625 117.402344 331.980469 107.140625 337.496094 100.796875 L 337.636719 100.917969 C 332.164062 107.210938 332.078125 117.441406 331.984375 128.273438 C 331.914062 136.089844 331.84375 144.175781 329.785156 151.433594 C 329.171875 153.601562 328.324219 155.671875 327.238281 157.644531 Z M 327.238281 157.644531 " fill-opacity="1" fill-rule="nonzero"/></g></g></g><g clip-path="url(#7eee880f7d)"><g clip-path="url(#162b9716d9)"><g clip-path="url(#1be1a14e4d)"><path fill="#450aae" d="M 325.789062 155.921875 C 325.339844 156.730469 324.855469 157.519531 324.332031 158.285156 C 319.5625 165.242188 312.285156 167.898438 303.855469 170.972656 C 296.992188 173.476562 289.214844 176.3125 282.152344 182.097656 C 279.710938 184.097656 277.988281 188.621094 276.160156 193.414062 C 276.023438 193.773438 275.886719 194.136719 275.75 194.5 C 274.636719 197.402344 273.789062 200.785156 273.148438 204.84375 C 272.191406 210.953125 270.894531 216.761719 265.65625 220.683594 C 259.820312 225.046875 252.164062 229.699219 242.898438 234.511719 C 240.996094 235.5 239.09375 236.480469 237.195312 237.460938 L 235.808594 238.175781 C 230.707031 240.804688 230.960938 243.707031 231.230469 246.78125 C 231.652344 251.613281 232.132812 257.09375 211.867188 262.707031 C 207.199219 264 204.804688 266.878906 204.320312 271.769531 C 203.890625 276.148438 205.039062 281.589844 206.257812 287.34375 C 208.015625 295.632812 209.828125 304.203125 207.359375 311.101562 C 206.046875 314.78125 203.710938 318.183594 200.609375 320.949219 C 197.558594 323.710938 194.03125 325.574219 190.03125 326.546875 C 183.445312 328.082031 176.125 327.574219 166.996094 324.949219 C 159.449219 322.777344 152.167969 319.386719 145.125 316.109375 C 140.085938 313.761719 134.875 311.335938 129.515625 309.320312 C 113.441406 303.273438 90.1875 296.371094 70.675781 297.808594 C 68.484375 297.96875 66.320312 298.289062 64.175781 298.769531 C 45.460938 302.980469 29.480469 315.011719 22.46875 330.164062 L 22.300781 330.085938 C 25.890625 322.324219 31.824219 315.277344 39.453125 309.707031 C 46.664062 304.445312 55.195312 300.597656 64.132812 298.585938 C 66.285156 298.105469 68.464844 297.785156 70.664062 297.625 C 90.207031 296.183594 113.488281 303.09375 129.578125 309.144531 C 134.945312 311.164062 140.160156 313.59375 145.203125 315.941406 C 152.238281 319.214844 159.515625 322.601562 167.046875 324.769531 C 176.144531 327.386719 183.433594 327.894531 189.988281 326.363281 C 197.753906 324.546875 204.503906 318.53125 207.1875 311.039062 C 209.636719 304.191406 207.828125 295.644531 206.078125 287.382812 C 204.855469 281.609375 203.703125 276.160156 204.136719 271.75 C 204.628906 266.773438 207.066406 263.84375 211.816406 262.527344 C 220.820312 260.035156 226.492188 257.367188 229.152344 254.375 C 231.480469 251.753906 231.257812 249.234375 231.046875 246.796875 C 230.773438 243.660156 230.511719 240.699219 235.726562 238.011719 L 237.109375 237.296875 C 239.007812 236.316406 240.910156 235.332031 242.8125 234.34375 C 252.066406 229.539062 259.714844 224.890625 265.542969 220.53125 C 270.726562 216.65625 272.011719 210.882812 272.964844 204.8125 C 273.605469 200.742188 274.457031 197.347656 275.574219 194.429688 C 275.714844 194.066406 275.851562 193.707031 275.988281 193.347656 C 277.820312 188.53125 279.554688 183.980469 282.03125 181.953125 C 289.117188 176.148438 296.914062 173.304688 303.789062 170.796875 C 312.1875 167.734375 319.441406 165.089844 324.175781 158.179688 C 325.8125 155.785156 327.066406 153.207031 327.933594 150.4375 C 330.203125 143.214844 330.472656 135.207031 330.730469 127.460938 C 331.101562 116.464844 331.449219 106.074219 337.671875 99.988281 L 337.800781 100.121094 C 331.632812 106.15625 331.285156 116.507812 330.917969 127.46875 C 330.65625 135.222656 330.386719 143.246094 328.109375 150.492188 C 327.519531 152.378906 326.746094 154.191406 325.789062 155.921875 Z M 325.789062 155.921875 " fill-opacity="1" fill-rule="nonzero"/></g></g></g><g clip-path="url(#42423f4582)"><g clip-path="url(#506c751163)"><g clip-path="url(#8dea61f05c)"><path fill="#450aae" d="M 324.386719 154.167969 C 323.785156 155.25 323.125 156.292969 322.398438 157.296875 C 317.476562 164.101562 309.859375 167.265625 301.796875 170.613281 C 294.59375 173.601562 287.144531 176.695312 280.605469 182.628906 C 278.433594 184.597656 277.101562 189.242188 275.691406 194.160156 C 275.558594 194.625 275.421875 195.09375 275.285156 195.566406 C 274.40625 198.605469 273.773438 202.054688 273.355469 206.125 C 272.75 212.007812 271.722656 218.105469 266.496094 222.382812 C 260.835938 227.011719 253.210938 231.847656 243.832031 236.75 C 241.375 238.035156 238.945312 239.289062 236.683594 240.453125 C 231.449219 243.144531 231.15625 246.058594 230.847656 249.140625 C 230.605469 251.582031 230.351562 254.105469 227.746094 256.738281 C 224.808594 259.710938 219.21875 262.363281 210.65625 264.847656 C 206.257812 266.121094 203.945312 268.847656 203.367188 273.417969 C 202.847656 277.511719 203.78125 282.554688 204.773438 287.890625 C 206.175781 295.46875 207.625 303.300781 205.222656 309.609375 C 202.570312 316.566406 196.136719 322.175781 188.832031 323.902344 C 182.660156 325.355469 175.804688 324.941406 167.257812 322.601562 C 160.375 320.714844 154 317.851562 147.253906 314.824219 C 142.351562 312.621094 137.28125 310.34375 132.042969 308.503906 C 115.605469 302.730469 91.988281 296.21875 72.828125 298.007812 C 70.636719 298.207031 68.472656 298.578125 66.335938 299.121094 C 47.652344 303.890625 32.066406 316.457031 25.65625 331.921875 L 25.484375 331.851562 C 28.757812 323.953125 34.433594 316.695312 41.898438 310.855469 C 45.511719 308.050781 49.371094 305.648438 53.480469 303.640625 C 57.589844 301.636719 61.859375 300.070312 66.289062 298.941406 C 68.433594 298.398438 70.605469 298.027344 72.808594 297.824219 C 92.003906 296.035156 115.648438 302.550781 132.101562 308.328125 C 137.351562 310.175781 142.421875 312.453125 147.328125 314.65625 C 154.070312 317.683594 160.433594 320.542969 167.304688 322.421875 C 175.820312 324.757812 182.648438 325.167969 188.789062 323.722656 C 196.035156 322.011719 202.417969 316.445312 205.046875 309.546875 C 207.433594 303.285156 205.988281 295.476562 204.589844 287.925781 C 202.644531 277.425781 200.808594 267.511719 210.601562 264.671875 C 219.132812 262.195312 224.699219 259.558594 227.617188 256.609375 C 230.175781 254.023438 230.421875 251.535156 230.664062 249.125 C 230.976562 245.988281 231.273438 243.027344 236.597656 240.289062 C 238.859375 239.125 241.292969 237.871094 243.746094 236.585938 C 253.113281 231.691406 260.730469 226.863281 266.378906 222.238281 C 271.550781 218.007812 272.570312 211.949219 273.171875 206.105469 C 273.59375 202.027344 274.226562 198.5625 275.109375 195.515625 C 275.246094 195.042969 275.378906 194.574219 275.511719 194.109375 C 276.933594 189.164062 278.273438 184.496094 280.480469 182.492188 C 287.042969 176.539062 294.507812 173.4375 301.726562 170.441406 C 309.761719 167.101562 317.355469 163.949219 322.25 157.1875 C 323.96875 154.824219 325.304688 152.261719 326.265625 149.5 C 328.753906 142.273438 329.214844 134.320312 329.660156 126.625 C 330.304688 115.503906 330.917969 105.003906 337.851562 99.191406 L 337.96875 99.332031 C 331.097656 105.089844 330.488281 115.558594 329.84375 126.636719 C 329.398438 134.34375 328.9375 142.308594 326.441406 149.558594 C 325.886719 151.15625 325.203125 152.691406 324.386719 154.167969 Z M 324.386719 154.167969 " fill-opacity="1" fill-rule="nonzero"/></g></g></g><g clip-path="url(#6f9572b4c3)"><g clip-path="url(#da9af36a72)"><g clip-path="url(#f2f94d29fc)"><path fill="#450aae" d="M 323.015625 152.410156 C 322.261719 153.769531 321.410156 155.070312 320.464844 156.304688 C 315.433594 162.910156 307.898438 166.417969 299.921875 170.128906 C 292.636719 173.519531 285.101562 177.027344 279.0625 183.15625 C 277.132812 185.117188 276.167969 189.921875 275.148438 195.011719 C 275.042969 195.550781 274.933594 196.089844 274.820312 196.636719 C 274.132812 200.195312 273.714844 203.785156 273.5625 207.40625 C 273.261719 213.445312 272.300781 219.644531 267.335938 224.082031 C 261.867188 228.96875 254.273438 233.988281 244.765625 238.992188 C 242.667969 240.097656 240.375 241.285156 237.554688 242.734375 C 232.183594 245.480469 231.335938 248.40625 230.4375 251.507812 C 229.738281 253.910156 229.015625 256.394531 226.195312 258.984375 C 223.007812 261.90625 217.527344 264.527344 209.441406 266.992188 C 200.398438 269.746094 201.792969 278.824219 203.269531 288.429688 C 204.328125 295.300781 205.421875 302.398438 203.078125 308.121094 C 200.476562 314.480469 194.414062 319.640625 187.632812 321.261719 C 181.875 322.632812 175.480469 322.3125 167.515625 320.257812 C 161.253906 318.640625 155.421875 316.132812 149.253906 313.476562 C 144.527344 311.445312 139.644531 309.34375 134.566406 307.691406 C 110.371094 299.820312 89.765625 296.542969 74.976562 298.207031 C 72.78125 298.453125 70.621094 298.875 68.496094 299.476562 C 49.835938 304.804688 34.640625 317.910156 28.84375 333.675781 L 28.667969 333.613281 C 34.488281 317.792969 49.730469 304.644531 68.445312 299.296875 C 70.582031 298.695312 72.75 298.269531 74.957031 298.023438 C 83.464844 297.066406 93.792969 297.707031 105.644531 299.929688 C 114.515625 301.589844 124.265625 304.144531 134.625 307.511719 C 139.710938 309.167969 144.597656 311.269531 149.328125 313.304688 C 155.492188 315.957031 161.3125 318.464844 167.5625 320.078125 C 175.496094 322.125 181.863281 322.441406 187.589844 321.078125 C 194.316406 319.472656 200.328125 314.359375 202.910156 308.050781 C 205.230469 302.378906 204.140625 295.300781 203.089844 288.457031 C 201.597656 278.769531 200.191406 269.617188 209.386719 266.8125 C 217.445312 264.359375 222.902344 261.753906 226.070312 258.847656 C 228.855469 256.292969 229.570312 253.832031 230.257812 251.457031 C 231.167969 248.316406 232.03125 245.355469 237.472656 242.570312 C 240.289062 241.121094 242.582031 239.933594 244.679688 238.828125 C 254.171875 233.832031 261.753906 228.824219 267.214844 223.941406 C 272.128906 219.550781 273.082031 213.394531 273.378906 207.398438 C 273.53125 203.765625 273.949219 200.167969 274.640625 196.601562 C 274.75 196.054688 274.859375 195.511719 274.96875 194.972656 C 275.992188 189.859375 276.960938 185.027344 278.929688 183.027344 C 284.992188 176.875 292.542969 173.359375 299.84375 169.964844 C 307.800781 166.261719 315.316406 162.761719 320.316406 156.195312 C 322.117188 153.859375 323.542969 151.3125 324.59375 148.558594 C 327.300781 141.328125 327.953125 133.417969 328.582031 125.765625 C 329.503906 114.527344 330.375 103.914062 338.027344 98.386719 L 338.136719 98.539062 C 330.550781 104.015625 329.683594 114.585938 328.761719 125.78125 C 328.132812 133.445312 327.484375 141.371094 324.765625 148.621094 C 324.277344 149.925781 323.691406 151.191406 323.015625 152.410156 Z M 323.015625 152.410156 " fill-opacity="1" fill-rule="nonzero"/></g></g></g><g clip-path="url(#b3a835503b)"><g clip-path="url(#b76298aa1c)"><g clip-path="url(#77e6d138aa)"><path fill="#450aae" d="M 321.667969 150.667969 C 320.753906 152.304688 319.710938 153.855469 318.53125 155.316406 C 313.449219 161.671875 306.0625 165.472656 298.238281 169.496094 C 290.785156 173.332031 283.074219 177.296875 277.519531 183.6875 C 275.8125 185.648438 275.207031 190.660156 274.570312 195.964844 C 274.5 196.542969 274.429688 197.125 274.359375 197.707031 C 273.9375 201.355469 273.742188 205.015625 273.769531 208.6875 C 273.785156 214.425781 273.132812 220.941406 268.175781 225.78125 C 262.902344 230.925781 255.339844 236.125 245.699219 241.234375 C 243.535156 242.382812 241.15625 243.617188 238.429688 245.011719 C 232.917969 247.820312 231.5 250.757812 229.992188 253.867188 C 227.664062 258.683594 225.257812 263.660156 208.230469 269.132812 C 199.773438 271.851562 200.738281 280.160156 201.757812 288.960938 C 202.472656 295.121094 203.210938 301.496094 200.9375 306.632812 C 198.386719 312.398438 192.695312 317.101562 186.4375 318.617188 C 181.089844 319.90625 175.160156 319.683594 167.777344 317.910156 C 162.09375 316.546875 156.773438 314.375 151.144531 312.074219 C 146.632812 310.230469 141.96875 308.328125 137.09375 306.875 C 111.796875 299.339844 91.621094 296.492188 77.128906 298.410156 C 74.929688 298.695312 72.773438 299.167969 70.65625 299.832031 C 52.011719 305.726562 37.210938 319.371094 32.027344 335.429688 L 31.855469 335.375 C 34.484375 327.21875 39.652344 319.53125 46.792969 313.148438 C 50.242188 310.085938 53.972656 307.421875 57.984375 305.148438 C 61.996094 302.875 66.203125 301.042969 70.601562 299.65625 C 72.726562 298.988281 74.894531 298.511719 77.105469 298.226562 C 91.625 296.304688 111.824219 299.15625 137.148438 306.699219 C 142.027344 308.152344 146.699219 310.058594 151.210938 311.902344 C 156.839844 314.199219 162.152344 316.371094 167.820312 317.730469 C 175.171875 319.496094 181.074219 319.71875 186.394531 318.4375 C 192.597656 316.933594 198.242188 312.273438 200.769531 306.558594 C 203.023438 301.46875 202.285156 295.117188 201.574219 288.980469 C 200.546875 280.105469 199.574219 271.722656 208.171875 268.957031 C 225.125 263.507812 227.515625 258.566406 229.828125 253.789062 C 231.34375 250.648438 232.78125 247.683594 238.34375 244.847656 C 241.070312 243.453125 243.449219 242.21875 245.613281 241.070312 C 255.238281 235.96875 262.789062 230.78125 268.046875 225.648438 C 272.957031 220.859375 273.597656 214.386719 273.582031 208.691406 C 273.558594 205.007812 273.753906 201.339844 274.175781 197.683594 C 274.246094 197.101562 274.316406 196.523438 274.386719 195.945312 C 275.027344 190.609375 275.636719 185.570312 277.378906 183.566406 C 282.957031 177.152344 290.683594 173.175781 298.152344 169.332031 C 305.957031 165.316406 313.328125 161.523438 318.386719 155.203125 C 320.269531 152.894531 321.78125 150.367188 322.921875 147.617188 C 325.855469 140.378906 326.6875 132.503906 327.492188 124.882812 C 328.695312 113.535156 329.828125 102.820312 338.203125 97.589844 L 338.300781 97.746094 C 330 102.929688 328.871094 113.601562 327.675781 124.902344 C 326.871094 132.535156 326.035156 140.425781 323.09375 147.6875 C 322.679688 148.707031 322.203125 149.703125 321.667969 150.667969 Z M 321.667969 150.667969 " fill-opacity="1" fill-rule="nonzero"/></g></g></g><g clip-path="url(#07c3c363c6)"><g clip-path="url(#70d4c78549)"><g clip-path="url(#979dc3d864)"><path fill="#450aae" d="M 320.328125 148.964844 C 319.257812 150.871094 318.015625 152.660156 316.601562 154.328125 C 311.519531 160.378906 304.015625 164.597656 296.757812 168.675781 C 289.035156 173.019531 281.046875 177.507812 275.976562 184.214844 C 274.476562 186.191406 274.234375 191.453125 273.976562 197.023438 C 273.949219 197.605469 273.921875 198.191406 273.894531 198.777344 C 273.671875 203.257812 273.847656 207.714844 273.972656 209.972656 C 274.414062 217.960938 272.886719 223.363281 269.015625 227.480469 C 263.945312 232.875 256.414062 238.257812 246.632812 243.476562 C 244.410156 244.660156 242.015625 245.910156 239.300781 247.289062 C 233.648438 250.164062 231.640625 253.109375 229.515625 256.230469 C 226.300781 260.957031 222.972656 265.84375 207.019531 271.273438 C 199.152344 273.953125 199.675781 281.492188 200.230469 289.472656 C 200.609375 294.9375 201 300.589844 198.796875 305.140625 C 198.65625 305.4375 198.503906 305.726562 198.34375 306.015625 C 195.671875 310.851562 190.734375 314.621094 185.238281 315.972656 C 180.300781 317.179688 174.835938 317.050781 168.039062 315.566406 C 162.898438 314.441406 158.058594 312.585938 152.929688 310.625 C 148.664062 308.992188 144.25 307.304688 139.621094 306.0625 C 122.664062 301.503906 97.960938 295.769531 79.277344 298.609375 C 77.078125 298.9375 74.921875 299.460938 72.816406 300.183594 C 54.183594 306.660156 39.773438 320.835938 35.214844 337.1875 L 35.039062 337.136719 C 37.347656 328.851562 42.257812 320.953125 49.238281 314.296875 C 52.605469 311.105469 56.273438 308.308594 60.238281 305.902344 C 64.203125 303.492188 68.375 301.53125 72.757812 300.011719 C 74.871094 299.285156 77.039062 298.757812 79.25 298.425781 C 97.96875 295.582031 122.695312 301.320312 139.667969 305.882812 C 144.308594 307.128906 148.726562 308.820312 152.996094 310.453125 C 158.117188 312.414062 162.953125 314.261719 168.078125 315.382812 C 174.847656 316.863281 180.285156 316.996094 185.195312 315.792969 C 190.964844 314.375 196.113281 310.261719 198.632812 305.0625 C 200.8125 300.550781 200.421875 294.925781 200.046875 289.484375 C 199.488281 281.429688 198.957031 273.824219 206.960938 271.097656 C 222.855469 265.6875 226.164062 260.828125 229.363281 256.128906 C 231.503906 252.988281 233.523438 250.019531 239.21875 247.125 C 241.929688 245.742188 244.328125 244.496094 246.542969 243.3125 C 256.3125 238.101562 263.828125 232.730469 268.882812 227.351562 C 272.710938 223.273438 274.226562 217.917969 273.789062 209.980469 C 273.664062 207.71875 273.488281 203.257812 273.707031 198.765625 C 273.738281 198.183594 273.765625 197.597656 273.792969 197.015625 C 274.050781 191.414062 274.296875 186.128906 275.828125 184.101562 C 280.921875 177.363281 288.925781 172.867188 296.667969 168.515625 C 303.910156 164.445312 311.402344 160.234375 316.457031 154.207031 C 318.546875 151.71875 320.160156 149.183594 321.253906 146.671875 C 324.410156 139.425781 325.421875 131.570312 326.402344 123.976562 C 327.160156 118.113281 327.875 112.570312 329.539062 107.855469 C 331.410156 102.554688 334.21875 99.039062 338.382812 96.785156 L 338.46875 96.949219 C 329.449219 101.828125 328.121094 112.105469 326.585938 124 C 325.605469 131.609375 324.585938 139.476562 321.421875 146.746094 C 321.101562 147.484375 320.734375 148.222656 320.328125 148.964844 Z M 320.328125 148.964844 " fill-opacity="1" fill-rule="nonzero"/></g></g></g><g clip-path="url(#ea4e13d23c)"><g clip-path="url(#28f90f3448)"><g clip-path="url(#4a954d73f4)"><path fill="#450aae" d="M 318.976562 147.328125 C 317.757812 149.484375 316.320312 151.488281 314.667969 153.335938 C 309.660156 159.042969 302.449219 163.417969 295.480469 167.648438 C 287.375 172.566406 278.992188 177.652344 274.433594 184.742188 C 273.140625 186.75 273.261719 192.324219 273.394531 198.222656 C 273.40625 198.761719 273.417969 199.304688 273.429688 199.847656 C 273.523438 204.550781 273.9375 209.011719 274.179688 211.253906 C 275.015625 219.089844 273.644531 224.78125 269.855469 229.175781 C 264.996094 234.820312 257.496094 240.382812 247.566406 245.71875 C 245.304688 246.933594 242.886719 248.191406 240.175781 249.566406 C 234.371094 252.507812 231.761719 255.464844 229 258.597656 C 224.914062 263.230469 220.691406 268.023438 205.808594 273.414062 C 198.4375 276.085938 198.492188 282.925781 198.550781 290.171875 C 198.585938 294.847656 198.625 299.683594 196.65625 303.648438 C 194.371094 308.242188 189.539062 311.953125 184.039062 313.328125 C 179.511719 314.457031 174.511719 314.417969 168.300781 313.21875 C 163.675781 312.320312 159.277344 310.773438 154.625 309.136719 C 150.632812 307.734375 146.5 306.28125 142.148438 305.246094 C 128.78125 302.066406 100.96875 295.457031 81.429688 298.808594 C 79.222656 299.179688 77.070312 299.757812 74.976562 300.539062 C 56.632812 307.492188 42.273438 322.566406 38.402344 338.941406 L 38.222656 338.898438 C 40.210938 330.488281 44.867188 322.375 51.6875 315.445312 C 54.972656 312.128906 58.574219 309.199219 62.488281 306.65625 C 66.402344 304.117188 70.542969 302.019531 74.910156 300.367188 C 77.015625 299.578125 79.179688 299 81.398438 298.628906 C 100.976562 295.269531 128.8125 301.886719 142.191406 305.066406 C 146.554688 306.105469 150.6875 307.558594 154.6875 308.964844 C 159.335938 310.601562 163.722656 312.144531 168.335938 313.039062 C 174.519531 314.234375 179.496094 314.269531 183.996094 313.152344 C 189.445312 311.789062 194.230469 308.117188 196.492188 303.570312 C 198.4375 299.644531 198.402344 294.832031 198.363281 290.175781 C 198.308594 282.863281 198.253906 275.957031 205.742188 273.242188 C 220.582031 267.867188 224.789062 263.09375 228.859375 258.480469 C 231.636719 255.332031 234.257812 252.359375 240.089844 249.40625 C 242.800781 248.03125 245.21875 246.769531 247.476562 245.554688 C 257.386719 240.234375 264.867188 234.683594 269.714844 229.058594 C 273.464844 224.707031 274.824219 219.054688 273.992188 211.273438 C 273.753906 209.03125 273.339844 204.5625 273.242188 199.851562 C 273.230469 199.308594 273.21875 198.769531 273.207031 198.230469 C 273.078125 192.300781 272.953125 186.699219 274.277344 184.644531 C 278.859375 177.519531 287.257812 172.421875 295.382812 167.492188 C 302.339844 163.269531 309.539062 158.902344 314.527344 153.21875 C 316.746094 150.691406 318.445312 148.175781 319.582031 145.734375 C 322.964844 138.472656 324.160156 130.636719 325.3125 123.054688 C 326.214844 117.128906 327.066406 111.527344 328.917969 106.824219 C 331 101.539062 334.0625 98.097656 338.558594 95.988281 L 338.636719 96.15625 C 328.894531 100.726562 327.320312 111.085938 325.496094 123.085938 C 324.339844 130.675781 323.144531 138.527344 319.75 145.8125 C 319.515625 146.3125 319.257812 146.820312 318.976562 147.328125 Z M 318.976562 147.328125 " fill-opacity="1" fill-rule="nonzero"/></g></g></g><g clip-path="url(#e38cc7c2d8)"><g clip-path="url(#eaecd97d2f)"><g clip-path="url(#849289c635)"><path fill="#450aae" d="M 272.378906 228.351562 C 271.886719 229.238281 271.324219 230.082031 270.695312 230.875 C 266.042969 236.765625 258.574219 242.511719 248.496094 247.960938 C 246.203125 249.199219 243.765625 250.472656 241.046875 251.847656 C 235.078125 254.859375 231.84375 257.835938 228.421875 260.984375 C 223.492188 265.515625 218.394531 270.203125 204.597656 275.558594 C 197.910156 278.148438 197.523438 284.121094 197.109375 290.445312 C 196.84375 294.53125 196.566406 298.757812 194.511719 302.164062 C 192.074219 306.203125 187.605469 309.46875 182.84375 310.6875 C 178.722656 311.730469 174.1875 311.792969 168.5625 310.871094 C 164.417969 310.195312 160.4375 308.941406 156.222656 307.617188 C 152.53125 306.457031 148.714844 305.253906 144.675781 304.429688 L 143.054688 304.097656 C 126.488281 300.710938 101.457031 295.589844 83.578125 299.007812 C 81.367188 299.421875 79.21875 300.050781 77.136719 300.894531 C 58.792969 308.429688 44.839844 324.054688 41.585938 340.695312 L 41.40625 340.660156 C 43.074219 332.121094 47.476562 323.800781 54.132812 316.59375 C 57.335938 313.148438 60.871094 310.089844 64.738281 307.414062 C 68.605469 304.738281 72.714844 302.507812 77.066406 300.722656 C 79.164062 299.875 81.320312 299.242188 83.542969 298.828125 C 101.457031 295.402344 126.511719 300.527344 143.089844 303.917969 L 144.714844 304.25 C 148.761719 305.078125 152.582031 306.277344 156.28125 307.441406 C 160.488281 308.765625 164.460938 310.015625 168.59375 310.691406 C 174.191406 311.605469 178.703125 311.546875 182.796875 310.507812 C 187.511719 309.304688 191.941406 306.070312 194.355469 302.070312 C 196.386719 298.703125 196.660156 294.496094 196.925781 290.433594 C 197.34375 284.050781 197.734375 278.019531 204.53125 275.386719 C 218.296875 270.046875 223.378906 265.371094 228.296875 260.847656 C 231.730469 257.6875 234.972656 254.707031 240.964844 251.679688 C 243.679688 250.308594 246.117188 249.039062 248.410156 247.796875 C 258.464844 242.363281 265.914062 236.632812 270.550781 230.761719 C 274.210938 226.128906 275.40625 220.179688 274.199219 212.566406 C 273.917969 210.789062 273.21875 206.097656 272.777344 200.933594 L 272.664062 199.613281 C 272.117188 193.273438 271.601562 187.289062 272.722656 185.183594 C 276.757812 177.613281 285.273438 172.089844 294.289062 166.242188 C 300.898438 161.957031 307.738281 157.523438 312.597656 152.222656 C 314.945312 149.660156 316.734375 147.160156 317.910156 144.792969 C 321.527344 137.511719 322.894531 129.683594 324.21875 122.117188 C 326.339844 109.96875 328.171875 99.480469 338.734375 95.1875 L 338.804688 95.359375 C 328.335938 99.613281 326.511719 110.054688 324.398438 122.148438 C 323.074219 129.730469 321.703125 137.570312 318.078125 144.875 C 316.890625 147.257812 315.09375 149.773438 312.734375 152.347656 C 307.855469 157.664062 301.011719 162.105469 294.390625 166.398438 C 285.394531 172.234375 276.890625 177.746094 272.886719 185.269531 C 271.789062 187.324219 272.304688 193.285156 272.847656 199.597656 L 272.960938 200.917969 C 273.402344 206.074219 274.101562 210.761719 274.382812 212.535156 C 275.386719 218.886719 274.730469 224.09375 272.378906 228.351562 Z M 272.378906 228.351562 " fill-opacity="1" fill-rule="nonzero"/></g></g></g><g clip-path="url(#f65947ed87)"><g clip-path="url(#1416e26533)"><g clip-path="url(#8751a84dba)"><path fill="#450aae" d="M 272.839844 230.527344 C 272.445312 231.238281 272.011719 231.917969 271.535156 232.574219 C 267.09375 238.707031 259.660156 244.640625 249.429688 250.199219 C 247.105469 251.464844 244.648438 252.75 241.921875 254.125 C 235.753906 257.226562 231.855469 260.230469 227.734375 263.40625 C 221.996094 267.828125 216.0625 272.398438 203.386719 277.699219 C 197.296875 280.246094 196.425781 285.414062 195.507812 290.886719 C 194.9375 294.300781 194.34375 297.832031 192.371094 300.675781 C 189.949219 304.164062 185.941406 306.917969 181.644531 308.042969 C 177.933594 309.007812 173.859375 309.164062 168.828125 308.527344 C 165.128906 308.058594 161.527344 307.089844 157.714844 306.066406 C 154.359375 305.164062 150.890625 304.230469 147.203125 303.613281 C 145.347656 303.304688 143.375 302.964844 141.289062 302.597656 C 124.71875 299.714844 102.027344 295.765625 85.730469 299.207031 C 83.511719 299.664062 81.371094 300.34375 79.296875 301.246094 C 60.957031 309.375 47.402344 325.550781 44.773438 342.453125 L 44.589844 342.425781 C 45.9375 333.761719 50.085938 325.226562 56.582031 317.742188 C 59.703125 314.171875 63.171875 310.980469 66.992188 308.171875 C 70.808594 305.359375 74.886719 302.996094 79.222656 301.078125 C 81.308594 300.171875 83.464844 299.488281 85.691406 299.027344 C 102.027344 295.582031 124.738281 299.53125 141.320312 302.417969 C 143.410156 302.78125 145.378906 303.121094 147.234375 303.433594 C 150.929688 304.050781 154.402344 304.984375 157.761719 305.886719 C 161.570312 306.910156 165.164062 307.875 168.851562 308.34375 C 173.859375 308.976562 177.910156 308.824219 181.601562 307.863281 C 185.855469 306.75 189.824219 304.023438 192.21875 300.570312 C 194.171875 297.761719 194.757812 294.25 195.328125 290.855469 C 196.214844 285.574219 197.132812 280.113281 203.316406 277.527344 C 215.972656 272.238281 221.894531 267.675781 227.621094 263.261719 C 231.753906 260.078125 235.65625 257.070312 241.839844 253.960938 C 244.566406 252.585938 247.019531 251.304688 249.34375 250.039062 C 259.546875 244.488281 266.960938 238.578125 271.386719 232.464844 C 274.996094 227.476562 275.984375 221.390625 274.40625 213.855469 C 274.125 212.507812 273.140625 207.664062 272.316406 202.011719 L 272.207031 201.277344 C 271.246094 194.703125 270.25 187.902344 271.175781 185.722656 C 274.589844 177.65625 283.722656 171.394531 293.390625 164.761719 C 299.589844 160.507812 306 156.109375 310.671875 151.230469 C 313.15625 148.632812 315.03125 146.152344 316.242188 143.847656 C 320.09375 136.550781 321.636719 128.726562 323.125 121.164062 C 325.539062 108.921875 327.621094 98.351562 338.914062 94.386719 L 338.972656 94.5625 C 327.78125 98.492188 325.710938 109.015625 323.308594 121.199219 C 321.8125 128.777344 320.269531 136.613281 316.40625 143.933594 C 315.1875 146.25 313.300781 148.746094 310.804688 151.355469 C 306.121094 156.25 299.703125 160.65625 293.496094 164.914062 C 283.847656 171.53125 274.742188 177.777344 271.34375 185.792969 C 270.441406 187.925781 271.433594 194.699219 272.390625 201.25 L 272.5 201.988281 C 273.324219 207.628906 274.308594 212.46875 274.589844 213.816406 C 275.96875 220.410156 275.394531 225.902344 272.839844 230.527344 Z M 272.839844 230.527344 " fill-opacity="1" fill-rule="nonzero"/></g></g></g><g clip-path="url(#e56b270a14)"><g clip-path="url(#a3c29b541a)"><g clip-path="url(#5d8dadfb55)"><path fill="#450aae" d="M 273.242188 232.847656 C 272.972656 233.332031 272.683594 233.808594 272.375 234.273438 C 268.148438 240.652344 260.742188 246.761719 250.363281 252.441406 C 248.011719 253.730469 245.535156 255.023438 242.792969 256.402344 C 236.335938 259.644531 231.691406 262.710938 226.777344 265.957031 C 220.316406 270.222656 213.632812 274.636719 202.175781 279.839844 C 196.6875 282.332031 195.261719 286.878906 193.878906 291.277344 C 193.015625 294.035156 192.117188 296.890625 190.226562 299.1875 C 187.824219 302.109375 184.261719 304.371094 180.449219 305.398438 C 177.136719 306.289062 173.527344 306.535156 169.09375 306.179688 C 165.789062 305.914062 162.519531 305.222656 159.058594 304.492188 C 156.085938 303.863281 153.011719 303.214844 149.734375 302.800781 C 146.699219 302.417969 143.300781 301.917969 139.699219 301.390625 C 123.253906 298.972656 102.78125 295.96875 87.878906 299.410156 C 85.660156 299.910156 83.519531 300.640625 81.457031 301.601562 C 63.109375 310.375 49.960938 327.101562 47.957031 344.207031 L 47.773438 344.1875 C 48.800781 335.40625 52.695312 326.664062 59.035156 318.902344 C 62.078125 315.210938 65.480469 311.890625 69.25 308.945312 C 73.015625 305.996094 77.058594 303.496094 81.378906 301.433594 C 83.453125 300.46875 85.605469 299.734375 87.839844 299.230469 C 102.773438 295.78125 123.261719 298.789062 139.726562 301.207031 C 143.324219 301.734375 146.722656 302.234375 149.753906 302.617188 C 153.039062 303.03125 156.117188 303.683594 159.09375 304.3125 C 162.550781 305.042969 165.816406 305.730469 169.105469 305.996094 C 173.523438 306.351562 177.109375 306.105469 180.402344 305.222656 C 184.175781 304.203125 187.707031 301.960938 190.082031 299.070312 C 191.953125 296.800781 192.84375 293.964844 193.703125 291.222656 C 195.097656 286.785156 196.535156 282.199219 202.097656 279.671875 C 213.542969 274.472656 220.21875 270.066406 226.675781 265.800781 C 231.59375 262.554688 236.242188 259.484375 242.710938 256.238281 C 245.453125 254.859375 247.925781 253.566406 250.277344 252.28125 C 260.628906 246.613281 268.011719 240.523438 272.222656 234.171875 C 275.71875 228.890625 276.523438 222.492188 274.613281 215.148438 C 273.917969 212.472656 272.828125 207.902344 271.851562 203.09375 C 270.464844 196.285156 268.898438 188.566406 269.625 186.261719 C 272.34375 177.65625 282.675781 170.230469 292.664062 163.046875 C 298.398438 158.929688 304.324219 154.667969 308.742188 150.238281 C 311.113281 147.851562 313.132812 145.320312 314.574219 142.90625 C 319.011719 135.484375 320.75 127.4375 322.429688 119.652344 C 325.039062 107.582031 327.289062 97.15625 339.089844 93.589844 L 339.144531 93.765625 C 327.445312 97.300781 325.207031 107.675781 322.609375 119.691406 C 320.925781 127.492188 319.179688 135.558594 314.734375 143 C 313.28125 145.425781 311.253906 147.972656 308.871094 150.367188 C 304.445312 154.808594 298.511719 159.074219 292.773438 163.199219 C 282.804688 170.363281 272.5 177.769531 269.800781 186.320312 C 269.085938 188.574219 270.652344 196.269531 272.03125 203.058594 C 273.007812 207.863281 274.097656 212.429688 274.792969 215.101562 C 276.546875 221.851562 276.023438 227.8125 273.242188 232.847656 Z M 273.242188 232.847656 " fill-opacity="1" fill-rule="nonzero"/></g></g></g><g clip-path="url(#8cf24f6c9d)"><g clip-path="url(#6e5a69ac3b)"><g clip-path="url(#42e30100a1)"><path fill="#450aae" d="M 273.667969 235.191406 C 273.523438 235.453125 273.371094 235.714844 273.214844 235.972656 C 269.199219 242.589844 261.828125 248.886719 251.296875 254.683594 C 248.917969 255.992188 246.425781 257.300781 243.667969 258.679688 C 236.46875 262.28125 230.699219 265.605469 224.585938 269.125 C 217.761719 273.058594 210.703125 277.125 200.964844 281.980469 C 196.105469 284.402344 194.140625 288.046875 192.242188 291.574219 C 191.035156 293.808594 189.898438 295.921875 188.078125 297.703125 C 185.558594 300.128906 182.617188 301.8125 179.253906 302.753906 C 176.335938 303.570312 173.191406 303.910156 169.355469 303.832031 C 166.363281 303.773438 163.324219 303.351562 160.105469 302.90625 C 157.605469 302.5625 155.023438 302.203125 152.261719 301.984375 C 148.164062 301.660156 143.359375 301.070312 138.273438 300.445312 C 122.863281 298.546875 103.679688 296.183594 90.03125 299.609375 C 87.804688 300.152344 85.667969 300.933594 83.617188 301.957031 C 65.273438 311.324219 52.523438 328.597656 51.144531 345.964844 L 50.960938 345.949219 C 51.667969 337.042969 55.308594 328.089844 61.484375 320.050781 C 64.441406 316.230469 67.777344 312.78125 71.5 309.699219 C 75.21875 306.621094 79.230469 303.984375 83.53125 301.789062 C 85.59375 300.761719 87.746094 299.976562 89.984375 299.429688 C 103.664062 296 122.867188 298.363281 138.296875 300.261719 C 143.378906 300.886719 148.183594 301.476562 152.277344 301.800781 C 155.039062 302.019531 157.628906 302.378906 160.128906 302.726562 C 163.34375 303.167969 166.378906 303.589844 169.359375 303.648438 C 173.175781 303.726562 176.304688 303.386719 179.203125 302.578125 C 182.539062 301.644531 185.453125 299.976562 187.949219 297.574219 C 189.75 295.8125 190.882812 293.710938 192.078125 291.488281 C 193.992188 287.9375 195.972656 284.265625 200.882812 281.816406 C 210.617188 276.964844 217.671875 272.898438 224.496094 268.96875 C 230.609375 265.445312 236.382812 262.117188 243.585938 258.515625 C 246.339844 257.136719 248.832031 255.832031 251.207031 254.523438 C 261.710938 248.742188 269.058594 242.46875 273.058594 235.875 C 276.484375 230.226562 277.074219 223.691406 274.820312 216.441406 C 274.066406 214.015625 272.714844 209.347656 271.386719 204.175781 C 269.53125 196.96875 267.597656 189.089844 268.074219 186.804688 C 270 177.613281 281.242188 169.21875 292.117188 161.105469 C 297.324219 157.21875 302.710938 153.199219 306.808594 149.246094 C 309.621094 146.53125 311.613281 144.152344 312.902344 141.96875 C 317.234375 134.632812 319.121094 126.796875 320.941406 119.222656 C 323.929688 106.808594 326.507812 96.089844 339.265625 92.789062 L 339.3125 92.96875 C 326.664062 96.238281 324.09375 106.910156 321.121094 119.265625 C 319.390625 126.460938 317.601562 133.886719 313.71875 140.914062 C 313.503906 141.296875 313.285156 141.679688 313.0625 142.0625 C 311.761719 144.261719 309.761719 146.65625 306.9375 149.378906 C 302.828125 153.34375 297.441406 157.363281 292.226562 161.253906 C 281.378906 169.347656 270.164062 177.71875 268.253906 186.84375 C 267.785156 189.085938 269.714844 196.941406 271.5625 204.128906 C 272.894531 209.296875 274.242188 213.960938 274.996094 216.382812 C 277.164062 223.355469 276.714844 229.679688 273.667969 235.191406 Z M 273.667969 235.191406 " fill-opacity="1" fill-rule="nonzero"/></g></g></g><g clip-path="url(#f564a711e0)"><g clip-path="url(#081d15074d)"><g clip-path="url(#7858354450)"><path fill="#450aae" d="M 274.144531 237.511719 C 274.113281 237.5625 274.082031 237.617188 274.054688 237.671875 C 270.160156 244.585938 262.820312 251.0625 252.230469 256.925781 C 249.828125 258.253906 247.316406 259.574219 244.539062 260.960938 C 243.035156 261.710938 241.558594 262.445312 240.105469 263.171875 C 226.589844 269.902344 214.917969 275.71875 199.757812 284.121094 C 195.640625 286.402344 193.167969 289.058594 190.777344 291.628906 C 189.21875 293.304688 187.746094 294.890625 185.929688 296.21875 C 183.527344 297.972656 180.902344 299.269531 178.054688 300.113281 C 175.546875 300.847656 172.789062 301.296875 169.625 301.488281 C 166.648438 301.667969 163.484375 301.523438 160.128906 301.371094 C 158.421875 301.296875 156.65625 301.214844 154.792969 301.171875 C 149.726562 301.046875 143.546875 300.414062 137.007812 299.746094 C 121.863281 298.199219 104.695312 296.441406 92.179688 299.808594 C 89.949219 300.398438 87.816406 301.230469 85.777344 302.308594 C 67.433594 312.277344 55.089844 330.105469 54.328125 347.71875 L 54.144531 347.710938 C 54.535156 338.683594 57.917969 329.515625 63.929688 321.195312 C 66.804688 317.25 70.074219 313.671875 73.746094 310.457031 C 77.417969 307.242188 81.398438 304.472656 85.6875 302.148438 C 87.738281 301.0625 89.886719 300.222656 92.132812 299.632812 C 104.679688 296.253906 121.863281 298.011719 137.023438 299.5625 C 143.5625 300.230469 149.738281 300.863281 154.796875 300.984375 C 156.660156 301.03125 158.429688 301.109375 160.136719 301.1875 C 163.484375 301.339844 166.648438 301.480469 169.613281 301.304688 C 172.761719 301.113281 175.507812 300.667969 178.003906 299.9375 C 180.832031 299.097656 183.4375 297.808594 185.820312 296.070312 C 187.625 294.75 189.089844 293.171875 190.644531 291.503906 C 193.042969 288.921875 195.523438 286.253906 199.667969 283.960938 C 214.832031 275.554688 226.503906 269.738281 240.023438 263.003906 C 241.480469 262.28125 242.957031 261.542969 244.457031 260.792969 C 247.230469 259.410156 249.742188 258.09375 252.140625 256.765625 C 262.699219 250.917969 270.015625 244.464844 273.894531 237.582031 C 273.921875 237.527344 273.953125 237.472656 273.980469 237.421875 C 277.257812 231.5 277.609375 224.875 275.027344 217.730469 C 274.171875 215.359375 272.582031 210.671875 270.921875 205.257812 C 267.769531 195.058594 266.332031 189.199219 266.523438 187.347656 C 267.546875 177.546875 279.820312 168.117188 291.691406 158.992188 C 296.554688 155.261719 301.144531 151.734375 304.878906 148.25 C 307.832031 145.519531 309.910156 143.15625 311.234375 141.027344 C 315.8125 133.667969 317.867188 125.824219 319.855469 118.234375 C 323.128906 105.742188 325.953125 94.949219 339.441406 91.992188 L 339.480469 92.171875 C 326.105469 95.105469 323.292969 105.847656 320.03125 118.28125 C 318.132812 125.527344 315.984375 133.742188 311.390625 141.125 C 310.058594 143.265625 307.96875 145.640625 305.007812 148.386719 C 301.261719 151.875 296.667969 155.402344 291.804688 159.140625 C 279.964844 168.238281 267.71875 177.644531 266.707031 187.367188 C 266.515625 189.191406 267.953125 195.027344 271.097656 205.203125 C 272.757812 210.613281 274.34375 215.300781 275.199219 217.667969 C 277.800781 224.867188 277.445312 231.539062 274.144531 237.511719 Z M 274.144531 237.511719 " fill-opacity="1" fill-rule="nonzero"/></g></g></g><g clip-path="url(#9f46fb92b8)"><g clip-path="url(#d9578a1e66)"><g clip-path="url(#c59e8221a1)"><path fill="#450aae" d="M 274.394531 240.308594 C 273.867188 241.253906 273.292969 242.171875 272.671875 243.054688 C 268.652344 248.777344 262.085938 254.195312 253.164062 259.167969 C 245.191406 263.605469 236.910156 267.316406 228.902344 270.90625 C 218.804688 275.429688 208.363281 280.109375 198.546875 286.261719 C 182.574219 296.269531 175.851562 299.574219 157.320312 300.355469 C 151.382812 300.605469 143.863281 299.957031 135.898438 299.269531 C 118.742188 297.789062 99.296875 296.113281 87.9375 302.664062 C 69.597656 313.238281 57.652344 331.613281 57.515625 349.476562 L 57.328125 349.472656 C 57.402344 340.324219 60.53125 330.941406 66.378906 322.34375 C 71.761719 314.425781 79.382812 307.382812 87.84375 302.503906 C 99.257812 295.921875 118.730469 297.605469 135.914062 299.085938 C 143.871094 299.773438 151.386719 300.421875 157.3125 300.171875 C 175.800781 299.390625 182.507812 296.09375 198.449219 286.105469 C 208.273438 279.945312 218.722656 275.265625 228.828125 270.738281 C 236.832031 267.148438 245.109375 263.441406 253.074219 259.007812 C 261.972656 254.050781 268.515625 248.648438 272.519531 242.949219 C 277.777344 235.46875 278.691406 227.417969 275.234375 219.023438 C 272.273438 211.832031 264.972656 191.621094 264.976562 187.890625 C 264.980469 177.402344 279.117188 166.316406 291.589844 156.535156 C 299.207031 150.558594 306.402344 144.917969 309.5625 140.085938 C 314.390625 132.707031 316.714844 124.492188 318.765625 117.242188 C 322.328125 104.667969 325.402344 93.808594 339.617188 91.195312 L 339.648438 91.375 C 325.546875 93.96875 322.488281 104.777344 318.945312 117.292969 C 316.890625 124.554688 314.558594 132.78125 309.71875 140.1875 C 306.539062 145.042969 299.332031 150.695312 291.703125 156.679688 C 279.265625 166.4375 265.164062 177.492188 265.160156 187.890625 C 265.160156 191.597656 272.449219 211.769531 275.40625 218.953125 C 278.46875 226.390625 278.125 233.5625 274.394531 240.308594 Z M 274.394531 240.308594 " fill-opacity="1" fill-rule="nonzero"/></g></g></g></svg>