<svg xmlns="http://www.w3.org/2000/svg" xmlns:xlink="http://www.w3.org/1999/xlink" width="340" zoomAndPan="magnify" viewBox="0 0 255 70.499998" height="94" preserveAspectRatio="xMidYMid meet" version="1.0"><defs><g/><clipPath id="d496a58d5d"><path d="M 38 0 L 59.476562 0 L 59.476562 22 L 38 22 Z M 38 0 " clip-rule="nonzero"/></clipPath><clipPath id="05c559623b"><path d="M 0.898438 38 L 20 38 L 20 58 L 0.898438 58 Z M 0.898438 38 " clip-rule="nonzero"/></clipPath><clipPath id="163708a913"><path d="M 43 55 L 54 55 L 54 65.535156 L 43 65.535156 Z M 43 55 " clip-rule="nonzero"/></clipPath></defs><g clip-path="url(#d496a58d5d)"><path fill="#000000" d="M 48.804688 21.492188 C 42.898438 21.492188 38.097656 16.6875 38.097656 10.785156 C 38.097656 4.878906 42.898438 0.078125 48.804688 0.078125 C 54.707031 0.078125 59.511719 4.878906 59.511719 10.785156 C 59.511719 16.6875 54.707031 21.492188 48.804688 21.492188 Z M 48.804688 3.03125 C 44.527344 3.03125 41.050781 6.507812 41.050781 10.785156 C 41.050781 15.058594 44.527344 18.539062 48.804688 18.539062 C 53.078125 18.539062 56.558594 15.058594 56.558594 10.785156 C 56.558594 6.507812 53.078125 3.03125 48.804688 3.03125 Z M 48.804688 3.03125 " fill-opacity="1" fill-rule="nonzero"/></g><g clip-path="url(#05c559623b)"><path fill="#000000" d="M 10.125 38.730469 C 15.191406 38.730469 19.3125 42.855469 19.3125 47.921875 C 19.3125 52.988281 15.191406 57.109375 10.125 57.109375 C 5.058594 57.109375 0.933594 52.988281 0.933594 47.921875 C 0.933594 42.855469 5.058594 38.730469 10.125 38.730469 Z M 10.125 54.15625 C 13.5625 54.15625 16.359375 51.359375 16.359375 47.921875 C 16.359375 44.484375 13.5625 41.6875 10.125 41.6875 C 6.6875 41.6875 3.890625 44.484375 3.890625 47.921875 C 3.890625 51.359375 6.6875 54.15625 10.125 54.15625 Z M 10.125 54.15625 " fill-opacity="1" fill-rule="nonzero"/></g><path fill="#cb6ce6" d="M 20.671875 15.25 C 17.941406 15.25 15.71875 13.027344 15.71875 10.296875 C 15.71875 7.5625 17.941406 5.339844 20.671875 5.339844 C 23.40625 5.339844 25.628906 7.5625 25.628906 10.296875 C 25.628906 13.027344 23.40625 15.25 20.671875 15.25 Z M 20.671875 8.292969 C 19.570312 8.292969 18.671875 9.191406 18.671875 10.296875 C 18.671875 11.398438 19.570312 12.296875 20.671875 12.296875 C 21.777344 12.296875 22.675781 11.398438 22.675781 10.296875 C 22.675781 9.191406 21.777344 8.292969 20.671875 8.292969 Z M 20.671875 8.292969 " fill-opacity="1" fill-rule="nonzero"/><path fill="#cb6ce6" d="M 46.550781 36.730469 C 46.550781 34 48.773438 31.777344 51.507812 31.777344 C 54.238281 31.777344 56.464844 34 56.464844 36.730469 C 56.464844 39.464844 54.238281 41.6875 51.507812 41.6875 C 48.773438 41.6875 46.550781 39.464844 46.550781 36.730469 Z M 53.507812 36.730469 C 53.507812 35.628906 52.609375 34.730469 51.507812 34.730469 C 50.402344 34.730469 49.507812 35.628906 49.507812 36.730469 C 49.507812 37.835938 50.402344 38.734375 51.507812 38.734375 C 52.609375 38.734375 53.507812 37.835938 53.507812 36.730469 Z M 53.507812 36.730469 " fill-opacity="1" fill-rule="nonzero"/><g clip-path="url(#163708a913)"><path fill="#cb6ce6" d="M 48.804688 55.824219 C 51.535156 55.824219 53.757812 58.046875 53.757812 60.777344 C 53.757812 63.511719 51.535156 65.734375 48.804688 65.734375 C 46.070312 65.734375 43.847656 63.511719 43.847656 60.777344 C 43.847656 58.046875 46.070312 55.824219 48.804688 55.824219 Z M 48.804688 62.78125 C 49.90625 62.78125 50.804688 61.882812 50.804688 60.777344 C 50.804688 59.675781 49.90625 58.777344 48.804688 58.777344 C 47.699219 58.777344 46.800781 59.675781 46.800781 60.777344 C 46.800781 61.882812 47.699219 62.78125 48.804688 62.78125 Z M 48.804688 62.78125 " fill-opacity="1" fill-rule="nonzero"/></g><path fill="#000000" d="M 17.914062 41.152344 C 17.390625 40.523438 17.480469 39.59375 18.109375 39.074219 L 22.59375 35.355469 C 22.160156 34.46875 21.90625 33.472656 21.90625 32.417969 C 21.90625 30.027344 23.171875 27.933594 25.0625 26.746094 L 21.984375 17.636719 C 21.722656 16.867188 22.140625 16.027344 22.914062 15.765625 C 23.6875 15.503906 24.523438 15.917969 24.785156 16.691406 L 27.847656 25.769531 C 28.097656 25.742188 28.347656 25.722656 28.601562 25.722656 C 29.863281 25.722656 31.039062 26.082031 32.046875 26.6875 L 37.675781 19.785156 C 38.191406 19.152344 39.121094 19.058594 39.753906 19.574219 C 40.386719 20.089844 40.480469 21.019531 39.964844 21.652344 L 34.191406 28.738281 C 34.828125 29.707031 35.21875 30.847656 35.28125 32.078125 L 44.527344 34.117188 C 45.324219 34.292969 45.828125 35.082031 45.648438 35.878906 C 45.5 36.570312 44.886719 37.039062 44.210938 37.039062 C 44.105469 37.039062 43.996094 37.027344 43.890625 37.003906 L 34.78125 34.996094 C 34.375 35.964844 33.742188 36.820312 32.953125 37.496094 L 45.382812 53.886719 C 45.878906 54.535156 45.75 55.464844 45.101562 55.957031 C 44.832031 56.160156 44.519531 56.257812 44.207031 56.257812 C 43.761719 56.257812 43.320312 56.054688 43.03125 55.671875 L 30.296875 38.886719 C 29.753906 39.03125 29.1875 39.113281 28.601562 39.113281 C 27.03125 39.113281 25.589844 38.566406 24.449219 37.660156 L 19.992188 41.347656 C 19.71875 41.578125 19.382812 41.6875 19.050781 41.6875 C 18.625 41.6875 18.203125 41.503906 17.914062 41.152344 Z M 28.601562 36.160156 C 30.664062 36.160156 32.339844 34.480469 32.339844 32.417969 C 32.339844 30.355469 30.664062 28.679688 28.601562 28.679688 C 26.539062 28.679688 24.863281 30.355469 24.863281 32.417969 C 24.863281 34.480469 26.539062 36.160156 28.601562 36.160156 Z M 28.601562 36.160156 " fill-opacity="1" fill-rule="nonzero"/><g fill="#000000" fill-opacity="1"><g transform="translate(66.198881, 47.413278)"><g><path d="M 15.515625 -2.8125 C 8.9375 -2.8125 5.390625 -7.546875 5.390625 -14.453125 C 5.390625 -19.84375 8.5 -25.84375 15.765625 -25.84375 C 18.375 -25.84375 21.265625 -25.109375 23.3125 -23.03125 L 25.4375 -25.0625 C 22.953125 -27.640625 19.96875 -28.984375 15.96875 -29.03125 C 8.125 -29.0625 2.046875 -23.265625 2.046875 -14.578125 C 2.046875 -4.53125 7.84375 0.25 15.515625 0.453125 C 19.5625 0.453125 23.5625 -0.890625 26.296875 -4.484375 L 23.890625 -6.375 C 22.09375 -3.546875 17.796875 -2.8125 15.515625 -2.8125 Z M 15.515625 -2.8125 "/></g></g></g><g fill="#000000" fill-opacity="1"><g transform="translate(95.924223, 47.413278)"><g><path d="M 3.421875 -28.625 L 3.421875 0 L 6.734375 0 L 6.734375 -28.625 Z M 3.421875 -28.625 "/></g></g></g><g fill="#000000" fill-opacity="1"><g transform="translate(108.418956, 47.413278)"><g><path d="M 6.328125 -10.78125 L 10.78125 -10.78125 C 17.265625 -10.78125 21.234375 -13.921875 21.234375 -19.765625 C 21.234375 -25.96875 16.703125 -28.578125 10.609375 -28.578125 L 3.015625 -28.578125 L 3.015625 0 L 6.328125 0 Z M 10.65625 -13.796875 L 6.328125 -13.796875 L 6.328125 -25.484375 L 10.578125 -25.484375 C 17.4375 -25.484375 18.125 -21.6875 18.125 -19.71875 C 18.125 -16.328125 16.09375 -13.796875 10.65625 -13.796875 Z M 10.65625 -13.796875 "/></g></g></g><g fill="#000000" fill-opacity="1"><g transform="translate(132.754635, 47.413278)"><g><path d="M 6.25 -0.078125 L 6.25 -16.046875 L 22.53125 -16.046875 L 22.53125 -0.078125 L 25.765625 -0.078125 L 25.765625 -28.578125 L 22.53125 -28.578125 L 22.53125 -19.03125 L 6.25 -19.03125 L 6.25 -28.578125 L 3.015625 -28.578125 L 3.015625 -0.078125 Z M 6.25 -0.078125 "/></g></g></g><g fill="#000000" fill-opacity="1"><g transform="translate(163.62323, 47.413278)"><g><path d="M 21.71875 -3.1875 L 6.28125 -3.1875 L 6.28125 -14.703125 L 20.53125 -14.703125 L 20.53125 -17.71875 L 6.28125 -17.71875 L 6.28125 -25.3125 L 21.359375 -25.3125 L 21.359375 -28.578125 L 3.015625 -28.578125 L 3.015625 0 L 21.71875 0 Z M 21.71875 -3.1875 "/></g></g></g><g fill="#000000" fill-opacity="1"><g transform="translate(189.91877, 47.413278)"><g><path d="M 6.328125 -10.78125 L 11.71875 -10.78125 L 17.765625 0 L 21.5625 0 L 15.0625 -11.34375 C 18.9375 -12.5 21.234375 -15.34375 21.234375 -19.765625 C 21.234375 -25.96875 16.703125 -28.578125 10.609375 -28.578125 L 3.015625 -28.578125 L 3.015625 0 L 6.328125 0 Z M 10.65625 -13.796875 L 6.328125 -13.796875 L 6.328125 -25.484375 L 10.578125 -25.484375 C 17.4375 -25.484375 18.125 -21.6875 18.125 -19.71875 C 18.125 -16.328125 16.09375 -13.796875 10.65625 -13.796875 Z M 10.65625 -13.796875 "/></g></g></g><g fill="#000000" fill-opacity="1"><g transform="translate(214.785232, 47.413278)"><g><path d="M 4.40625 0 L 7.796875 -8.9375 L 20 -8.9375 L 23.1875 0 L 26.78125 0 L 16.296875 -28.578125 L 12 -28.578125 L 0.78125 0 Z M 8.984375 -12.078125 L 14.125 -25.6875 L 18.90625 -12.078125 Z M 8.984375 -12.078125 "/></g></g></g></svg>