<svg xmlns="http://www.w3.org/2000/svg" xmlns:xlink="http://www.w3.org/1999/xlink" width="340" zoomAndPan="magnify" viewBox="0 0 255 70.499998" height="94" preserveAspectRatio="xMidYMid meet" version="1.0"><defs><g/><clipPath id="8ac63d7f21"><path d="M 38 0 L 59.476562 0 L 59.476562 22 L 38 22 Z M 38 0 " clip-rule="nonzero"/></clipPath><clipPath id="422c77ac53"><path d="M 0.898438 38 L 20 38 L 20 58 L 0.898438 58 Z M 0.898438 38 " clip-rule="nonzero"/></clipPath><clipPath id="047877692c"><path d="M 43 55 L 54 55 L 54 65.535156 L 43 65.535156 Z M 43 55 " clip-rule="nonzero"/></clipPath><clipPath id="ea12ba61a7"><path d="M 16 4 L 27 4 L 27 15 L 16 15 Z M 16 4 " clip-rule="nonzero"/></clipPath><clipPath id="c7f1411ec9"><path d="M 62.679688 11.335938 L 5.675781 -5.984375 L -13.808594 58.144531 L 43.195312 75.464844 Z M 62.679688 11.335938 " clip-rule="nonzero"/></clipPath><clipPath id="1b6f9fbcdd"><path d="M 14.953125 15 L 28.359375 15 L 28.359375 15.789062 L 14.953125 15.789062 Z M 14.953125 15 " clip-rule="nonzero"/></clipPath><clipPath id="23a667c7d5"><path d="M 62.679688 11.335938 L 5.675781 -5.984375 L -13.808594 58.144531 L 43.195312 75.464844 Z M 62.679688 11.335938 " clip-rule="nonzero"/></clipPath><clipPath id="01b3e896ae"><path d="M 46 31 L 57 31 L 57 42 L 46 42 Z M 46 31 " clip-rule="nonzero"/></clipPath><clipPath id="3291485dc5"><path d="M 92.320312 37.9375 L 35.316406 20.617188 L 15.832031 84.75 L 72.835938 102.066406 Z M 92.320312 37.9375 " clip-rule="nonzero"/></clipPath><clipPath id="7b78ba3a98"><path d="M 44.59375 42 L 58 42 L 58 42.390625 L 44.59375 42.390625 Z M 44.59375 42 " clip-rule="nonzero"/></clipPath><clipPath id="9066c740e8"><path d="M 92.320312 37.9375 L 35.316406 20.617188 L 15.832031 84.75 L 72.835938 102.066406 Z M 92.320312 37.9375 " clip-rule="nonzero"/></clipPath><clipPath id="c64bf4542f"><path d="M 43 55 L 54 55 L 54 66 L 43 66 Z M 43 55 " clip-rule="nonzero"/></clipPath><clipPath id="10f6bbf320"><path d="M 89.191406 62.214844 L 32.1875 44.894531 L 12.703125 109.027344 L 69.707031 126.34375 Z M 89.191406 62.214844 " clip-rule="nonzero"/></clipPath><clipPath id="9a9ee32abc"><path d="M 41.464844 66 L 54.871094 66 L 54.871094 66.667969 L 41.464844 66.667969 Z M 41.464844 66 " clip-rule="nonzero"/></clipPath><clipPath id="5fc854faf7"><path d="M 89.191406 62.214844 L 32.1875 44.894531 L 12.703125 109.027344 L 69.707031 126.34375 Z M 89.191406 62.214844 " clip-rule="nonzero"/></clipPath></defs><g clip-path="url(#8ac63d7f21)"><path fill="#000000" d="M 48.804688 21.492188 C 42.898438 21.492188 38.097656 16.6875 38.097656 10.785156 C 38.097656 4.878906 42.898438 0.078125 48.804688 0.078125 C 54.707031 0.078125 59.511719 4.878906 59.511719 10.785156 C 59.511719 16.6875 54.707031 21.492188 48.804688 21.492188 Z M 48.804688 3.03125 C 44.527344 3.03125 41.050781 6.507812 41.050781 10.785156 C 41.050781 15.058594 44.527344 18.539062 48.804688 18.539062 C 53.078125 18.539062 56.558594 15.058594 56.558594 10.785156 C 56.558594 6.507812 53.078125 3.03125 48.804688 3.03125 Z M 48.804688 3.03125 " fill-opacity="1" fill-rule="nonzero"/></g><g clip-path="url(#422c77ac53)"><path fill="#000000" d="M 10.125 38.730469 C 15.191406 38.730469 19.3125 42.855469 19.3125 47.921875 C 19.3125 52.988281 15.191406 57.109375 10.125 57.109375 C 5.058594 57.109375 0.933594 52.988281 0.933594 47.921875 C 0.933594 42.855469 5.058594 38.730469 10.125 38.730469 Z M 10.125 54.15625 C 13.5625 54.15625 16.359375 51.359375 16.359375 47.921875 C 16.359375 44.484375 13.5625 41.6875 10.125 41.6875 C 6.6875 41.6875 3.890625 44.484375 3.890625 47.921875 C 3.890625 51.359375 6.6875 54.15625 10.125 54.15625 Z M 10.125 54.15625 " fill-opacity="1" fill-rule="nonzero"/></g><path fill="#ffffff" d="M 20.671875 15.25 C 17.941406 15.25 15.71875 13.027344 15.71875 10.296875 C 15.71875 7.5625 17.941406 5.339844 20.671875 5.339844 C 23.40625 5.339844 25.628906 7.5625 25.628906 10.296875 C 25.628906 13.027344 23.40625 15.25 20.671875 15.25 Z M 20.671875 8.292969 C 19.570312 8.292969 18.671875 9.191406 18.671875 10.296875 C 18.671875 11.398438 19.570312 12.296875 20.671875 12.296875 C 21.777344 12.296875 22.675781 11.398438 22.675781 10.296875 C 22.675781 9.191406 21.777344 8.292969 20.671875 8.292969 Z M 20.671875 8.292969 " fill-opacity="1" fill-rule="nonzero"/><path fill="#ffffff" d="M 46.550781 36.730469 C 46.550781 34 48.773438 31.777344 51.507812 31.777344 C 54.238281 31.777344 56.464844 34 56.464844 36.730469 C 56.464844 39.464844 54.238281 41.6875 51.507812 41.6875 C 48.773438 41.6875 46.550781 39.464844 46.550781 36.730469 Z M 53.507812 36.730469 C 53.507812 35.628906 52.609375 34.730469 51.507812 34.730469 C 50.402344 34.730469 49.507812 35.628906 49.507812 36.730469 C 49.507812 37.835938 50.402344 38.734375 51.507812 38.734375 C 52.609375 38.734375 53.507812 37.835938 53.507812 36.730469 Z M 53.507812 36.730469 " fill-opacity="1" fill-rule="nonzero"/><g clip-path="url(#047877692c)"><path fill="#ffffff" d="M 48.804688 55.824219 C 51.535156 55.824219 53.757812 58.046875 53.757812 60.777344 C 53.757812 63.511719 51.535156 65.734375 48.804688 65.734375 C 46.070312 65.734375 43.847656 63.511719 43.847656 60.777344 C 43.847656 58.046875 46.070312 55.824219 48.804688 55.824219 Z M 48.804688 62.78125 C 49.90625 62.78125 50.804688 61.882812 50.804688 60.777344 C 50.804688 59.675781 49.90625 58.777344 48.804688 58.777344 C 47.699219 58.777344 46.800781 59.675781 46.800781 60.777344 C 46.800781 61.882812 47.699219 62.78125 48.804688 62.78125 Z M 48.804688 62.78125 " fill-opacity="1" fill-rule="nonzero"/></g><path fill="#000000" d="M 17.914062 41.152344 C 17.390625 40.523438 17.480469 39.59375 18.109375 39.074219 L 22.59375 35.355469 C 22.160156 34.46875 21.90625 33.472656 21.90625 32.417969 C 21.90625 30.027344 23.171875 27.933594 25.0625 26.746094 L 21.984375 17.636719 C 21.722656 16.867188 22.140625 16.027344 22.914062 15.765625 C 23.6875 15.503906 24.523438 15.917969 24.785156 16.691406 L 27.847656 25.769531 C 28.097656 25.742188 28.347656 25.722656 28.601562 25.722656 C 29.863281 25.722656 31.039062 26.082031 32.046875 26.6875 L 37.675781 19.785156 C 38.191406 19.152344 39.121094 19.058594 39.753906 19.574219 C 40.386719 20.089844 40.480469 21.019531 39.964844 21.652344 L 34.191406 28.738281 C 34.828125 29.707031 35.21875 30.847656 35.28125 32.078125 L 44.527344 34.117188 C 45.324219 34.292969 45.828125 35.082031 45.648438 35.878906 C 45.5 36.570312 44.886719 37.039062 44.210938 37.039062 C 44.105469 37.039062 43.996094 37.027344 43.890625 37.003906 L 34.78125 34.996094 C 34.375 35.964844 33.742188 36.820312 32.953125 37.496094 L 45.382812 53.886719 C 45.878906 54.535156 45.75 55.464844 45.101562 55.957031 C 44.832031 56.160156 44.519531 56.257812 44.207031 56.257812 C 43.761719 56.257812 43.320312 56.054688 43.03125 55.671875 L 30.296875 38.886719 C 29.753906 39.03125 29.1875 39.113281 28.601562 39.113281 C 27.03125 39.113281 25.589844 38.566406 24.449219 37.660156 L 19.992188 41.347656 C 19.71875 41.578125 19.382812 41.6875 19.050781 41.6875 C 18.625 41.6875 18.203125 41.503906 17.914062 41.152344 Z M 28.601562 36.160156 C 30.664062 36.160156 32.339844 34.480469 32.339844 32.417969 C 32.339844 30.355469 30.664062 28.679688 28.601562 28.679688 C 26.539062 28.679688 24.863281 30.355469 24.863281 32.417969 C 24.863281 34.480469 26.539062 36.160156 28.601562 36.160156 Z M 28.601562 36.160156 " fill-opacity="1" fill-rule="nonzero"/><g fill="#000000" fill-opacity="1"><g transform="translate(66.198881, 47.413278)"><g><path d="M 15.515625 -2.8125 C 8.9375 -2.8125 5.390625 -7.546875 5.390625 -14.453125 C 5.390625 -19.84375 8.5 -25.84375 15.765625 -25.84375 C 18.375 -25.84375 21.265625 -25.109375 23.3125 -23.03125 L 25.4375 -25.0625 C 22.953125 -27.640625 19.96875 -28.984375 15.96875 -29.03125 C 8.125 -29.0625 2.046875 -23.265625 2.046875 -14.578125 C 2.046875 -4.53125 7.84375 0.25 15.515625 0.453125 C 19.5625 0.453125 23.5625 -0.890625 26.296875 -4.484375 L 23.890625 -6.375 C 22.09375 -3.546875 17.796875 -2.8125 15.515625 -2.8125 Z M 15.515625 -2.8125 "/></g></g></g><g fill="#000000" fill-opacity="1"><g transform="translate(95.924223, 47.413278)"><g><path d="M 3.421875 -28.625 L 3.421875 0 L 6.734375 0 L 6.734375 -28.625 Z M 3.421875 -28.625 "/></g></g></g><g fill="#000000" fill-opacity="1"><g transform="translate(108.418956, 47.413278)"><g><path d="M 6.328125 -10.78125 L 10.78125 -10.78125 C 17.265625 -10.78125 21.234375 -13.921875 21.234375 -19.765625 C 21.234375 -25.96875 16.703125 -28.578125 10.609375 -28.578125 L 3.015625 -28.578125 L 3.015625 0 L 6.328125 0 Z M 10.65625 -13.796875 L 6.328125 -13.796875 L 6.328125 -25.484375 L 10.578125 -25.484375 C 17.4375 -25.484375 18.125 -21.6875 18.125 -19.71875 C 18.125 -16.328125 16.09375 -13.796875 10.65625 -13.796875 Z M 10.65625 -13.796875 "/></g></g></g><g fill="#000000" fill-opacity="1"><g transform="translate(132.754635, 47.413278)"><g><path d="M 6.25 -0.078125 L 6.25 -16.046875 L 22.53125 -16.046875 L 22.53125 -0.078125 L 25.765625 -0.078125 L 25.765625 -28.578125 L 22.53125 -28.578125 L 22.53125 -19.03125 L 6.25 -19.03125 L 6.25 -28.578125 L 3.015625 -28.578125 L 3.015625 -0.078125 Z M 6.25 -0.078125 "/></g></g></g><g fill="#000000" fill-opacity="1"><g transform="translate(163.62323, 47.413278)"><g><path d="M 21.71875 -3.1875 L 6.28125 -3.1875 L 6.28125 -14.703125 L 20.53125 -14.703125 L 20.53125 -17.71875 L 6.28125 -17.71875 L 6.28125 -25.3125 L 21.359375 -25.3125 L 21.359375 -28.578125 L 3.015625 -28.578125 L 3.015625 0 L 21.71875 0 Z M 21.71875 -3.1875 "/></g></g></g><g fill="#000000" fill-opacity="1"><g transform="translate(189.91877, 47.413278)"><g><path d="M 6.328125 -10.78125 L 11.71875 -10.78125 L 17.765625 0 L 21.5625 0 L 15.0625 -11.34375 C 18.9375 -12.5 21.234375 -15.34375 21.234375 -19.765625 C 21.234375 -25.96875 16.703125 -28.578125 10.609375 -28.578125 L 3.015625 -28.578125 L 3.015625 0 L 6.328125 0 Z M 10.65625 -13.796875 L 6.328125 -13.796875 L 6.328125 -25.484375 L 10.578125 -25.484375 C 17.4375 -25.484375 18.125 -21.6875 18.125 -19.71875 C 18.125 -16.328125 16.09375 -13.796875 10.65625 -13.796875 Z M 10.65625 -13.796875 "/></g></g></g><g fill="#000000" fill-opacity="1"><g transform="translate(214.785232, 47.413278)"><g><path d="M 4.40625 0 L 7.796875 -8.9375 L 20 -8.9375 L 23.1875 0 L 26.78125 0 L 16.296875 -28.578125 L 12 -28.578125 L 0.78125 0 Z M 8.984375 -12.078125 L 14.125 -25.6875 L 18.90625 -12.078125 Z M 8.984375 -12.078125 "/></g></g></g><g clip-path="url(#ea12ba61a7)"><g clip-path="url(#c7f1411ec9)"><path fill="#ffec9d" d="M 20.34375 14.707031 C 17.683594 13.898438 16.171875 11.070312 16.984375 8.40625 C 17.792969 5.746094 20.617188 4.234375 23.28125 5.046875 C 25.945312 5.855469 27.453125 8.679688 26.644531 11.34375 C 25.832031 14.007812 23.007812 15.515625 20.34375 14.707031 Z M 22.40625 7.925781 C 21.328125 7.597656 20.1875 8.207031 19.863281 9.28125 C 19.535156 10.359375 20.144531 11.5 21.21875 11.824219 C 22.296875 12.152344 23.4375 11.542969 23.761719 10.46875 C 24.089844 9.390625 23.480469 8.25 22.40625 7.925781 Z M 22.40625 7.925781 " fill-opacity="1" fill-rule="nonzero"/></g></g><g clip-path="url(#1b6f9fbcdd)"><g clip-path="url(#23a667c7d5)"><path fill="#000000" d="M 9.984375 39.132812 C 9.664062 38.367188 10.023438 37.484375 10.792969 37.164062 L 16.265625 34.871094 C 16.101562 33.875 16.152344 32.832031 16.464844 31.804688 C 17.171875 29.472656 19.023438 27.804688 21.21875 27.210938 L 20.917969 17.421875 C 20.890625 16.589844 21.542969 15.898438 22.375 15.871094 C 23.207031 15.847656 23.902344 16.496094 23.925781 17.328125 L 24.226562 27.082031 C 24.472656 27.128906 24.722656 27.1875 24.972656 27.261719 C 26.199219 27.636719 27.242188 28.332031 28.042969 29.222656 L 35.574219 24.160156 C 36.265625 23.695312 37.199219 23.878906 37.664062 24.570312 C 38.125 25.257812 37.941406 26.195312 37.253906 26.65625 L 29.527344 31.855469 C 29.863281 32.988281 29.902344 34.214844 29.597656 35.433594 L 38.007812 40.160156 C 38.730469 40.566406 38.988281 41.484375 38.582031 42.207031 C 38.230469 42.835938 37.496094 43.113281 36.832031 42.910156 C 36.730469 42.878906 36.628906 42.835938 36.53125 42.78125 L 28.25 38.125 C 27.5625 38.953125 26.695312 39.597656 25.726562 40.023438 L 32.988281 59.679688 C 33.277344 60.460938 32.878906 61.328125 32.101562 61.613281 C 31.78125 61.730469 31.445312 61.734375 31.140625 61.644531 C 30.707031 61.511719 30.335938 61.183594 30.167969 60.726562 L 22.726562 40.59375 C 22.15625 40.574219 21.578125 40.484375 21.007812 40.3125 C 19.476562 39.847656 18.234375 38.886719 17.386719 37.664062 L 11.953125 39.941406 C 11.617188 40.082031 11.257812 40.089844 10.9375 39.992188 C 10.523438 39.867188 10.164062 39.5625 9.984375 39.132812 Z M 21.882812 37.433594 C 23.890625 38.042969 26.023438 36.902344 26.636719 34.894531 C 27.246094 32.882812 26.105469 30.753906 24.097656 30.140625 C 22.085938 29.53125 19.957031 30.667969 19.34375 32.679688 C 18.734375 34.6875 19.871094 36.820312 21.882812 37.433594 Z M 21.882812 37.433594 " fill-opacity="1" fill-rule="nonzero"/></g></g><g clip-path="url(#01b3e896ae)"><g clip-path="url(#3291485dc5)"><path fill="#cb6ce6" d="M 49.984375 41.308594 C 47.320312 40.5 45.8125 37.671875 46.621094 35.011719 C 47.429688 32.347656 50.257812 30.839844 52.921875 31.648438 C 55.582031 32.457031 57.09375 35.28125 56.28125 37.945312 C 55.472656 40.609375 52.648438 42.117188 49.984375 41.308594 Z M 52.046875 34.527344 C 50.96875 34.199219 49.828125 34.808594 49.503906 35.886719 C 49.175781 36.960938 49.785156 38.101562 50.859375 38.429688 C 51.9375 38.753906 53.078125 38.144531 53.402344 37.070312 C 53.730469 35.996094 53.121094 34.855469 52.046875 34.527344 Z M 52.046875 34.527344 " fill-opacity="1" fill-rule="nonzero"/></g></g><g clip-path="url(#7b78ba3a98)"><g clip-path="url(#9066c740e8)"><path fill="#000000" d="M 39.625 65.734375 C 39.304688 64.96875 39.664062 64.085938 40.433594 63.765625 L 45.90625 61.472656 C 45.742188 60.480469 45.792969 59.433594 46.105469 58.40625 C 46.8125 56.074219 48.664062 54.40625 50.859375 53.8125 L 50.558594 44.023438 C 50.53125 43.191406 51.183594 42.5 52.015625 42.472656 C 52.847656 42.449219 53.539062 43.101562 53.566406 43.929688 L 53.863281 53.683594 C 54.113281 53.730469 54.363281 53.789062 54.613281 53.863281 C 55.839844 54.238281 56.882812 54.933594 57.683594 55.824219 L 65.214844 50.761719 C 65.90625 50.296875 66.839844 50.480469 67.300781 51.171875 C 67.765625 51.859375 67.582031 52.796875 66.894531 53.257812 L 59.164062 58.457031 C 59.503906 59.589844 59.542969 60.820312 59.238281 62.035156 L 67.648438 66.761719 C 68.371094 67.167969 68.628906 68.085938 68.222656 68.808594 C 67.867188 69.4375 67.132812 69.714844 66.472656 69.511719 C 66.371094 69.480469 66.269531 69.4375 66.171875 69.382812 L 57.886719 64.730469 C 57.203125 65.554688 56.335938 66.199219 55.367188 66.625 L 62.628906 86.28125 C 62.917969 87.0625 62.519531 87.929688 61.738281 88.214844 C 61.417969 88.335938 61.085938 88.335938 60.78125 88.246094 C 60.347656 88.113281 59.976562 87.785156 59.804688 87.328125 L 52.367188 67.195312 C 51.796875 67.175781 51.21875 67.089844 50.648438 66.914062 C 49.117188 66.449219 47.875 65.488281 47.027344 64.265625 L 41.59375 66.542969 C 41.257812 66.683594 40.898438 66.695312 40.574219 66.59375 C 40.164062 66.46875 39.804688 66.167969 39.625 65.734375 Z M 51.523438 64.035156 C 53.53125 64.644531 55.664062 63.507812 56.273438 61.496094 C 56.886719 59.484375 55.746094 57.355469 53.738281 56.742188 C 51.726562 56.132812 49.59375 57.269531 48.984375 59.28125 C 48.375 61.292969 49.511719 63.421875 51.523438 64.035156 Z M 51.523438 64.035156 " fill-opacity="1" fill-rule="nonzero"/></g></g><g clip-path="url(#c64bf4542f)"><g clip-path="url(#10f6bbf320)"><path fill="#ff6ece" d="M 46.855469 65.585938 C 44.195312 64.777344 42.683594 61.949219 43.496094 59.289062 C 44.304688 56.625 47.128906 55.117188 49.792969 55.925781 C 52.457031 56.734375 53.964844 59.558594 53.15625 62.222656 C 52.347656 64.886719 49.519531 66.394531 46.855469 65.585938 Z M 48.917969 58.804688 C 47.839844 58.476562 46.699219 59.085938 46.375 60.164062 C 46.046875 61.238281 46.65625 62.378906 47.730469 62.707031 C 48.808594 63.03125 49.949219 62.421875 50.273438 61.347656 C 50.601562 60.273438 49.992188 59.132812 48.917969 58.804688 Z M 48.917969 58.804688 " fill-opacity="1" fill-rule="nonzero"/></g></g><g clip-path="url(#9a9ee32abc)"><g clip-path="url(#5fc854faf7)"><path fill="#000000" d="M 36.496094 90.011719 C 36.175781 89.246094 36.539062 88.367188 37.304688 88.042969 L 42.777344 85.75 C 42.613281 84.757812 42.664062 83.710938 42.976562 82.683594 C 43.683594 80.351562 45.535156 78.683594 47.730469 78.089844 L 47.429688 68.300781 C 47.402344 67.46875 48.054688 66.777344 48.886719 66.75 C 49.71875 66.726562 50.414062 67.378906 50.4375 68.207031 L 50.738281 77.960938 C 50.988281 78.007812 51.234375 78.066406 51.484375 78.140625 C 52.714844 78.515625 53.753906 79.210938 54.558594 80.101562 L 62.085938 75.039062 C 62.777344 74.574219 63.710938 74.757812 64.175781 75.449219 C 64.636719 76.136719 64.453125 77.074219 63.765625 77.539062 L 56.039062 82.734375 C 56.375 83.867188 56.414062 85.097656 56.113281 86.3125 L 64.519531 91.039062 C 65.242188 91.445312 65.5 92.363281 65.09375 93.089844 C 64.742188 93.714844 64.007812 93.992188 63.347656 93.789062 C 63.242188 93.757812 63.140625 93.71875 63.042969 93.664062 L 54.761719 89.007812 C 54.074219 89.832031 53.207031 90.480469 52.238281 90.90625 L 59.5 110.5625 C 59.789062 111.339844 59.390625 112.207031 58.613281 112.496094 C 58.292969 112.613281 57.957031 112.613281 57.652344 112.523438 C 57.21875 112.390625 56.847656 112.0625 56.679688 111.605469 L 49.238281 91.472656 C 48.667969 91.453125 48.089844 91.367188 47.519531 91.191406 C 45.988281 90.726562 44.746094 89.765625 43.902344 88.542969 L 38.464844 90.820312 C 38.128906 90.960938 37.769531 90.972656 37.449219 90.875 C 37.035156 90.746094 36.675781 90.445312 36.496094 90.011719 Z M 48.394531 88.3125 C 50.402344 88.921875 52.535156 87.785156 53.148438 85.773438 C 53.757812 83.765625 52.621094 81.632812 50.609375 81.019531 C 48.597656 80.410156 46.46875 81.546875 45.855469 83.558594 C 45.246094 85.570312 46.382812 87.699219 48.394531 88.3125 Z M 48.394531 88.3125 " fill-opacity="1" fill-rule="nonzero"/></g></g></svg>