<svg xmlns="http://www.w3.org/2000/svg" xmlns:xlink="http://www.w3.org/1999/xlink" width="352" zoomAndPan="magnify" viewBox="0 0 264 70.499998" height="94" preserveAspectRatio="xMidYMid meet" version="1.0"><defs><g/><clipPath id="4e1abc20d9"><path d="M 38 0 L 59.507812 0 L 59.507812 22 L 38 22 Z M 38 0 " clip-rule="nonzero"/></clipPath><clipPath id="c2e2fea8ed"><path d="M 0.929688 38 L 20 38 L 20 58 L 0.929688 58 Z M 0.929688 38 " clip-rule="nonzero"/></clipPath><clipPath id="b3d3096422"><path d="M 43 55 L 54 55 L 54 65.535156 L 43 65.535156 Z M 43 55 " clip-rule="nonzero"/></clipPath><clipPath id="69f17fcc92"><path d="M 16 4 L 27 4 L 27 15 L 16 15 Z M 16 4 " clip-rule="nonzero"/></clipPath><clipPath id="a96ef48368"><path d="M 62.710938 11.335938 L 5.707031 -5.984375 L -13.777344 58.144531 L 43.226562 75.464844 Z M 62.710938 11.335938 " clip-rule="nonzero"/></clipPath><clipPath id="f4e3798e2a"><path d="M 14.984375 15 L 28.390625 15 L 28.390625 15.789062 L 14.984375 15.789062 Z M 14.984375 15 " clip-rule="nonzero"/></clipPath><clipPath id="d46c7952ba"><path d="M 62.710938 11.335938 L 5.707031 -5.984375 L -13.777344 58.144531 L 43.226562 75.464844 Z M 62.710938 11.335938 " clip-rule="nonzero"/></clipPath><clipPath id="c8d439117b"><path d="M 46 31 L 57 31 L 57 42 L 46 42 Z M 46 31 " clip-rule="nonzero"/></clipPath><clipPath id="4bb1aff0d1"><path d="M 92.351562 37.9375 L 35.347656 20.617188 L 15.863281 84.75 L 72.867188 102.066406 Z M 92.351562 37.9375 " clip-rule="nonzero"/></clipPath><clipPath id="d18c74a780"><path d="M 44.625 42 L 58.03125 42 L 58.03125 42.390625 L 44.625 42.390625 Z M 44.625 42 " clip-rule="nonzero"/></clipPath><clipPath id="148b3005a7"><path d="M 92.351562 37.9375 L 35.347656 20.617188 L 15.863281 84.75 L 72.867188 102.066406 Z M 92.351562 37.9375 " clip-rule="nonzero"/></clipPath><clipPath id="efeb5e8c11"><path d="M 43 55 L 54 55 L 54 66 L 43 66 Z M 43 55 " clip-rule="nonzero"/></clipPath><clipPath id="3f808876e9"><path d="M 89.222656 62.214844 L 32.21875 44.894531 L 12.734375 109.027344 L 69.738281 126.34375 Z M 89.222656 62.214844 " clip-rule="nonzero"/></clipPath><clipPath id="4c709457b3"><path d="M 41.496094 66 L 54.902344 66 L 54.902344 66.667969 L 41.496094 66.667969 Z M 41.496094 66 " clip-rule="nonzero"/></clipPath><clipPath id="5fc9d03cf4"><path d="M 89.222656 62.214844 L 32.21875 44.894531 L 12.734375 109.027344 L 69.738281 126.34375 Z M 89.222656 62.214844 " clip-rule="nonzero"/></clipPath></defs><g clip-path="url(#4e1abc20d9)"><path fill="#000000" d="M 48.835938 21.492188 C 42.929688 21.492188 38.128906 16.6875 38.128906 10.785156 C 38.128906 4.878906 42.929688 0.078125 48.835938 0.078125 C 54.738281 0.078125 59.542969 4.878906 59.542969 10.785156 C 59.542969 16.6875 54.738281 21.492188 48.835938 21.492188 Z M 48.835938 3.03125 C 44.5625 3.03125 41.082031 6.507812 41.082031 10.785156 C 41.082031 15.058594 44.558594 18.539062 48.835938 18.539062 C 53.109375 18.539062 56.589844 15.058594 56.589844 10.785156 C 56.589844 6.507812 53.109375 3.03125 48.835938 3.03125 Z M 48.835938 3.03125 " fill-opacity="1" fill-rule="nonzero"/></g><g clip-path="url(#c2e2fea8ed)"><path fill="#000000" d="M 10.15625 38.730469 C 15.222656 38.730469 19.34375 42.855469 19.34375 47.921875 C 19.34375 52.988281 15.222656 57.109375 10.15625 57.109375 C 5.089844 57.109375 0.964844 52.988281 0.964844 47.921875 C 0.964844 42.855469 5.089844 38.730469 10.15625 38.730469 Z M 10.15625 54.15625 C 13.59375 54.15625 16.390625 51.359375 16.390625 47.921875 C 16.390625 44.484375 13.59375 41.6875 10.15625 41.6875 C 6.71875 41.6875 3.921875 44.484375 3.921875 47.921875 C 3.921875 51.359375 6.71875 54.15625 10.15625 54.15625 Z M 10.15625 54.15625 " fill-opacity="1" fill-rule="nonzero"/></g><path fill="#ffffff" d="M 20.703125 15.25 C 17.972656 15.25 15.75 13.027344 15.75 10.296875 C 15.75 7.5625 17.972656 5.339844 20.703125 5.339844 C 23.4375 5.339844 25.660156 7.5625 25.660156 10.296875 C 25.660156 13.027344 23.4375 15.25 20.703125 15.25 Z M 20.703125 8.292969 C 19.601562 8.292969 18.703125 9.191406 18.703125 10.296875 C 18.703125 11.398438 19.601562 12.296875 20.703125 12.296875 C 21.808594 12.296875 22.707031 11.398438 22.707031 10.296875 C 22.707031 9.191406 21.808594 8.292969 20.703125 8.292969 Z M 20.703125 8.292969 " fill-opacity="1" fill-rule="nonzero"/><path fill="#ffffff" d="M 46.582031 36.730469 C 46.582031 34 48.808594 31.777344 51.539062 31.777344 C 54.269531 31.777344 56.496094 34 56.496094 36.730469 C 56.496094 39.464844 54.269531 41.6875 51.539062 41.6875 C 48.808594 41.6875 46.582031 39.464844 46.582031 36.730469 Z M 53.539062 36.730469 C 53.539062 35.628906 52.644531 34.730469 51.539062 34.730469 C 50.433594 34.730469 49.539062 35.628906 49.539062 36.730469 C 49.539062 37.835938 50.433594 38.734375 51.539062 38.734375 C 52.644531 38.734375 53.539062 37.835938 53.539062 36.730469 Z M 53.539062 36.730469 " fill-opacity="1" fill-rule="nonzero"/><g clip-path="url(#b3d3096422)"><path fill="#ffffff" d="M 48.835938 55.824219 C 51.566406 55.824219 53.792969 58.046875 53.792969 60.777344 C 53.792969 63.511719 51.566406 65.734375 48.835938 65.734375 C 46.101562 65.734375 43.878906 63.511719 43.878906 60.777344 C 43.878906 58.046875 46.101562 55.824219 48.835938 55.824219 Z M 48.835938 62.78125 C 49.9375 62.78125 50.835938 61.882812 50.835938 60.777344 C 50.835938 59.675781 49.9375 58.777344 48.835938 58.777344 C 47.730469 58.777344 46.835938 59.675781 46.835938 60.777344 C 46.835938 61.882812 47.730469 62.78125 48.835938 62.78125 Z M 48.835938 62.78125 " fill-opacity="1" fill-rule="nonzero"/></g><path fill="#000000" d="M 17.945312 41.152344 C 17.425781 40.523438 17.511719 39.59375 18.140625 39.074219 L 22.628906 35.355469 C 22.191406 34.46875 21.9375 33.472656 21.9375 32.417969 C 21.9375 30.027344 23.203125 27.933594 25.09375 26.746094 L 22.015625 17.636719 C 21.753906 16.867188 22.171875 16.027344 22.945312 15.765625 C 23.71875 15.503906 24.554688 15.917969 24.816406 16.691406 L 27.878906 25.769531 C 28.128906 25.742188 28.378906 25.722656 28.632812 25.722656 C 29.894531 25.722656 31.070312 26.082031 32.078125 26.6875 L 37.707031 19.785156 C 38.222656 19.152344 39.152344 19.058594 39.785156 19.574219 C 40.417969 20.089844 40.511719 21.019531 39.996094 21.652344 L 34.222656 28.738281 C 34.859375 29.707031 35.25 30.847656 35.3125 32.078125 L 44.558594 34.117188 C 45.355469 34.292969 45.859375 35.082031 45.683594 35.878906 C 45.53125 36.570312 44.917969 37.039062 44.242188 37.039062 C 44.136719 37.039062 44.027344 37.027344 43.921875 37.003906 L 34.8125 34.996094 C 34.40625 35.964844 33.773438 36.820312 32.984375 37.496094 L 45.417969 53.886719 C 45.910156 54.535156 45.78125 55.464844 45.132812 55.957031 C 44.863281 56.160156 44.550781 56.257812 44.238281 56.257812 C 43.792969 56.257812 43.351562 56.054688 43.0625 55.671875 L 30.332031 38.886719 C 29.789062 39.03125 29.222656 39.113281 28.632812 39.113281 C 27.0625 39.113281 25.621094 38.566406 24.480469 37.660156 L 20.023438 41.347656 C 19.75 41.578125 19.414062 41.6875 19.082031 41.6875 C 18.660156 41.6875 18.238281 41.503906 17.945312 41.152344 Z M 28.632812 36.160156 C 30.695312 36.160156 32.375 34.480469 32.375 32.417969 C 32.375 30.355469 30.695312 28.679688 28.632812 28.679688 C 26.570312 28.679688 24.894531 30.355469 24.894531 32.417969 C 24.894531 34.480469 26.570312 36.160156 28.632812 36.160156 Z M 28.632812 36.160156 " fill-opacity="1" fill-rule="nonzero"/><g fill="#000000" fill-opacity="1"><g transform="translate(63.912335, 47.413278)"><g><path d="M 15.515625 -2.8125 C 8.9375 -2.8125 5.390625 -7.546875 5.390625 -14.453125 C 5.390625 -19.84375 8.5 -25.84375 15.765625 -25.84375 C 18.375 -25.84375 21.265625 -25.109375 23.3125 -23.03125 L 25.4375 -25.0625 C 22.953125 -27.640625 19.96875 -28.984375 15.96875 -29.03125 C 8.125 -29.0625 2.046875 -23.265625 2.046875 -14.578125 C 2.046875 -4.53125 7.84375 0.25 15.515625 0.453125 C 19.5625 0.453125 23.5625 -0.890625 26.296875 -4.484375 L 23.890625 -6.375 C 22.09375 -3.546875 17.796875 -2.8125 15.515625 -2.8125 Z M 15.515625 -2.8125 "/></g></g></g><g fill="#000000" fill-opacity="1"><g transform="translate(93.637677, 47.413278)"><g><path d="M 20.046875 -28.578125 L 11.46875 -15.96875 L 3.390625 -28.578125 L -0.15625 -28.578125 L 9.71875 -13.03125 L 9.71875 0 L 12.9375 0 L 12.9375 -13.03125 L 23.5625 -28.578125 Z M 20.046875 -28.578125 "/></g></g></g><g fill="#000000" fill-opacity="1"><g transform="translate(119.157432, 47.413278)"><g><path d="M 6.328125 -10.78125 L 10.78125 -10.78125 C 17.265625 -10.78125 21.234375 -13.921875 21.234375 -19.765625 C 21.234375 -25.96875 16.703125 -28.578125 10.609375 -28.578125 L 3.015625 -28.578125 L 3.015625 0 L 6.328125 0 Z M 10.65625 -13.796875 L 6.328125 -13.796875 L 6.328125 -25.484375 L 10.578125 -25.484375 C 17.4375 -25.484375 18.125 -21.6875 18.125 -19.71875 C 18.125 -16.328125 16.09375 -13.796875 10.65625 -13.796875 Z M 10.65625 -13.796875 "/></g></g></g><g fill="#000000" fill-opacity="1"><g transform="translate(143.493111, 47.413278)"><g><path d="M 6.25 -0.078125 L 6.25 -16.046875 L 22.53125 -16.046875 L 22.53125 -0.078125 L 25.765625 -0.078125 L 25.765625 -28.578125 L 22.53125 -28.578125 L 22.53125 -19.03125 L 6.25 -19.03125 L 6.25 -28.578125 L 3.015625 -28.578125 L 3.015625 -0.078125 Z M 6.25 -0.078125 "/></g></g></g><g fill="#000000" fill-opacity="1"><g transform="translate(174.361706, 47.413278)"><g><path d="M 21.71875 -3.1875 L 6.28125 -3.1875 L 6.28125 -14.703125 L 20.53125 -14.703125 L 20.53125 -17.71875 L 6.28125 -17.71875 L 6.28125 -25.3125 L 21.359375 -25.3125 L 21.359375 -28.578125 L 3.015625 -28.578125 L 3.015625 0 L 21.71875 0 Z M 21.71875 -3.1875 "/></g></g></g><g fill="#000000" fill-opacity="1"><g transform="translate(200.657246, 47.413278)"><g><path d="M 6.328125 -10.78125 L 11.71875 -10.78125 L 17.765625 0 L 21.5625 0 L 15.0625 -11.34375 C 18.9375 -12.5 21.234375 -15.34375 21.234375 -19.765625 C 21.234375 -25.96875 16.703125 -28.578125 10.609375 -28.578125 L 3.015625 -28.578125 L 3.015625 0 L 6.328125 0 Z M 10.65625 -13.796875 L 6.328125 -13.796875 L 6.328125 -25.484375 L 10.578125 -25.484375 C 17.4375 -25.484375 18.125 -21.6875 18.125 -19.71875 C 18.125 -16.328125 16.09375 -13.796875 10.65625 -13.796875 Z M 10.65625 -13.796875 "/></g></g></g><g fill="#000000" fill-opacity="1"><g transform="translate(225.523708, 47.413278)"><g><path d="M 4.40625 0 L 7.796875 -8.9375 L 20 -8.9375 L 23.1875 0 L 26.78125 0 L 16.296875 -28.578125 L 12 -28.578125 L 0.78125 0 Z M 8.984375 -12.078125 L 14.125 -25.6875 L 18.90625 -12.078125 Z M 8.984375 -12.078125 "/></g></g></g><g clip-path="url(#69f17fcc92)"><g clip-path="url(#a96ef48368)"><path fill="#ffec9d" d="M 20.375 14.707031 C 17.714844 13.898438 16.203125 11.070312 17.015625 8.40625 C 17.824219 5.746094 20.648438 4.234375 23.3125 5.046875 C 25.976562 5.855469 27.484375 8.679688 26.675781 11.34375 C 25.867188 14.007812 23.039062 15.515625 20.375 14.707031 Z M 22.4375 7.925781 C 21.363281 7.597656 20.222656 8.207031 19.894531 9.28125 C 19.566406 10.359375 20.175781 11.5 21.25 11.824219 C 22.328125 12.152344 23.46875 11.542969 23.792969 10.46875 C 24.121094 9.390625 23.511719 8.25 22.4375 7.925781 Z M 22.4375 7.925781 " fill-opacity="1" fill-rule="nonzero"/></g></g><g clip-path="url(#f4e3798e2a)"><g clip-path="url(#d46c7952ba)"><path fill="#000000" d="M 10.015625 39.132812 C 9.695312 38.367188 10.058594 37.484375 10.824219 37.164062 L 16.296875 34.871094 C 16.132812 33.875 16.183594 32.832031 16.496094 31.804688 C 17.203125 29.472656 19.058594 27.804688 21.25 27.210938 L 20.949219 17.421875 C 20.921875 16.589844 21.574219 15.898438 22.40625 15.871094 C 23.238281 15.847656 23.933594 16.496094 23.957031 17.328125 L 24.257812 27.082031 C 24.507812 27.128906 24.753906 27.1875 25.003906 27.261719 C 26.234375 27.636719 27.273438 28.332031 28.078125 29.222656 L 35.605469 24.160156 C 36.296875 23.695312 37.230469 23.878906 37.695312 24.570312 C 38.160156 25.257812 37.976562 26.195312 37.285156 26.65625 L 29.558594 31.855469 C 29.894531 32.988281 29.933594 34.214844 29.632812 35.433594 L 38.039062 40.160156 C 38.765625 40.566406 39.019531 41.484375 38.613281 42.207031 C 38.261719 42.835938 37.527344 43.113281 36.867188 42.910156 C 36.761719 42.878906 36.660156 42.835938 36.5625 42.78125 L 28.28125 38.125 C 27.597656 38.953125 26.726562 39.597656 25.757812 40.023438 L 33.023438 59.679688 C 33.308594 60.460938 32.910156 61.328125 32.132812 61.613281 C 31.8125 61.730469 31.476562 61.734375 31.171875 61.644531 C 30.738281 61.511719 30.367188 61.183594 30.199219 60.726562 L 22.757812 40.59375 C 22.1875 40.574219 21.609375 40.484375 21.039062 40.3125 C 19.507812 39.847656 18.265625 38.886719 17.421875 37.664062 L 11.984375 39.941406 C 11.648438 40.082031 11.292969 40.089844 10.96875 39.992188 C 10.554688 39.867188 10.195312 39.5625 10.015625 39.132812 Z M 21.914062 37.433594 C 23.925781 38.042969 26.054688 36.902344 26.667969 34.894531 C 27.277344 32.882812 26.140625 30.753906 24.128906 30.140625 C 22.121094 29.53125 19.988281 30.667969 19.375 32.679688 C 18.765625 34.6875 19.90625 36.820312 21.914062 37.433594 Z M 21.914062 37.433594 " fill-opacity="1" fill-rule="nonzero"/></g></g><g clip-path="url(#c8d439117b)"><g clip-path="url(#4bb1aff0d1)"><path fill="#cb6ce6" d="M 50.015625 41.308594 C 47.355469 40.5 45.84375 37.671875 46.652344 35.011719 C 47.464844 32.347656 50.289062 30.839844 52.953125 31.648438 C 55.613281 32.457031 57.125 35.28125 56.316406 37.945312 C 55.503906 40.609375 52.679688 42.117188 50.015625 41.308594 Z M 52.078125 34.527344 C 51 34.199219 49.859375 34.808594 49.535156 35.886719 C 49.207031 36.960938 49.816406 38.101562 50.890625 38.429688 C 51.96875 38.753906 53.109375 38.144531 53.433594 37.070312 C 53.761719 35.996094 53.152344 34.855469 52.078125 34.527344 Z M 52.078125 34.527344 " fill-opacity="1" fill-rule="nonzero"/></g></g><g clip-path="url(#d18c74a780)"><g clip-path="url(#148b3005a7)"><path fill="#000000" d="M 39.65625 65.734375 C 39.335938 64.96875 39.695312 64.085938 40.464844 63.765625 L 45.9375 61.472656 C 45.773438 60.480469 45.824219 59.433594 46.136719 58.40625 C 46.84375 56.074219 48.695312 54.40625 50.890625 53.8125 L 50.589844 44.023438 C 50.5625 43.191406 51.214844 42.5 52.046875 42.472656 C 52.878906 42.449219 53.574219 43.101562 53.597656 43.929688 L 53.898438 53.683594 C 54.144531 53.730469 54.394531 53.789062 54.644531 53.863281 C 55.871094 54.238281 56.914062 54.933594 57.714844 55.824219 L 65.246094 50.761719 C 65.9375 50.296875 66.871094 50.480469 67.335938 51.171875 C 67.796875 51.859375 67.613281 52.796875 66.925781 53.257812 L 59.195312 58.457031 C 59.535156 59.589844 59.574219 60.820312 59.269531 62.035156 L 67.679688 66.761719 C 68.402344 67.167969 68.660156 68.085938 68.253906 68.808594 C 67.902344 69.4375 67.167969 69.714844 66.503906 69.511719 C 66.402344 69.480469 66.300781 69.4375 66.203125 69.382812 L 57.921875 64.730469 C 57.234375 65.554688 56.367188 66.199219 55.398438 66.625 L 62.660156 86.28125 C 62.949219 87.0625 62.550781 87.929688 61.769531 88.214844 C 61.453125 88.335938 61.117188 88.335938 60.8125 88.246094 C 60.378906 88.113281 60.007812 87.785156 59.839844 87.328125 L 52.398438 67.195312 C 51.828125 67.175781 51.25 67.089844 50.679688 66.914062 C 49.148438 66.449219 47.90625 65.488281 47.058594 64.265625 L 41.625 66.542969 C 41.289062 66.683594 40.929688 66.695312 40.609375 66.59375 C 40.195312 66.46875 39.835938 66.167969 39.65625 65.734375 Z M 51.554688 64.035156 C 53.5625 64.644531 55.695312 63.507812 56.304688 61.496094 C 56.917969 59.484375 55.777344 57.355469 53.769531 56.742188 C 51.757812 56.132812 49.625 57.269531 49.015625 59.28125 C 48.40625 61.292969 49.542969 63.421875 51.554688 64.035156 Z M 51.554688 64.035156 " fill-opacity="1" fill-rule="nonzero"/></g></g><g clip-path="url(#efeb5e8c11)"><g clip-path="url(#3f808876e9)"><path fill="#ff6ece" d="M 46.890625 65.585938 C 44.226562 64.777344 42.71875 61.949219 43.527344 59.289062 C 44.335938 56.625 47.160156 55.117188 49.824219 55.925781 C 52.488281 56.734375 53.996094 59.558594 53.1875 62.222656 C 52.378906 64.886719 49.554688 66.394531 46.890625 65.585938 Z M 48.949219 58.804688 C 47.875 58.476562 46.734375 59.085938 46.40625 60.164062 C 46.078125 61.238281 46.6875 62.378906 47.765625 62.707031 C 48.839844 63.03125 49.980469 62.421875 50.308594 61.347656 C 50.632812 60.273438 50.023438 59.132812 48.949219 58.804688 Z M 48.949219 58.804688 " fill-opacity="1" fill-rule="nonzero"/></g></g><g clip-path="url(#4c709457b3)"><g clip-path="url(#5fc9d03cf4)"><path fill="#000000" d="M 36.527344 90.011719 C 36.207031 89.246094 36.570312 88.367188 37.335938 88.042969 L 42.808594 85.75 C 42.648438 84.757812 42.695312 83.710938 43.007812 82.683594 C 43.714844 80.351562 45.570312 78.683594 47.761719 78.089844 L 47.460938 68.300781 C 47.433594 67.46875 48.089844 66.777344 48.917969 66.75 C 49.75 66.726562 50.445312 67.378906 50.46875 68.207031 L 50.769531 77.960938 C 51.019531 78.007812 51.265625 78.066406 51.515625 78.140625 C 52.746094 78.515625 53.785156 79.210938 54.589844 80.101562 L 62.117188 75.039062 C 62.808594 74.574219 63.742188 74.757812 64.207031 75.449219 C 64.671875 76.136719 64.488281 77.074219 63.796875 77.539062 L 56.070312 82.734375 C 56.40625 83.867188 56.445312 85.097656 56.144531 86.3125 L 64.550781 91.039062 C 65.277344 91.445312 65.53125 92.363281 65.125 93.089844 C 64.773438 93.714844 64.039062 93.992188 63.378906 93.789062 C 63.273438 93.757812 63.171875 93.71875 63.074219 93.664062 L 54.792969 89.007812 C 54.109375 89.832031 53.238281 90.480469 52.269531 90.90625 L 59.535156 110.5625 C 59.820312 111.339844 59.421875 112.207031 58.644531 112.496094 C 58.324219 112.613281 57.988281 112.613281 57.683594 112.523438 C 57.25 112.390625 56.878906 112.0625 56.710938 111.605469 L 49.269531 91.472656 C 48.699219 91.453125 48.121094 91.367188 47.550781 91.191406 C 46.019531 90.726562 44.777344 89.765625 43.933594 88.542969 L 38.496094 90.820312 C 38.160156 90.960938 37.804688 90.972656 37.480469 90.875 C 37.066406 90.746094 36.707031 90.445312 36.527344 90.011719 Z M 48.425781 88.3125 C 50.4375 88.921875 52.566406 87.785156 53.179688 85.773438 C 53.789062 83.765625 52.652344 81.632812 50.640625 81.019531 C 48.632812 80.410156 46.5 81.546875 45.886719 83.558594 C 45.277344 85.570312 46.417969 87.699219 48.425781 88.3125 Z M 48.425781 88.3125 " fill-opacity="1" fill-rule="nonzero"/></g></g></svg>