<svg xmlns="http://www.w3.org/2000/svg" xmlns:xlink="http://www.w3.org/1999/xlink" width="115" zoomAndPan="magnify" viewBox="0 0 86.25 98.249996" height="131" preserveAspectRatio="xMidYMid meet" version="1.0"><defs><clipPath id="6bdef23ec6"><path d="M 53 0.0507812 L 84.933594 0.0507812 L 84.933594 32 L 53 32 Z M 53 0.0507812 " clip-rule="nonzero"/></clipPath><clipPath id="331e577273"><path d="M 62 80 L 77 80 L 77 95.074219 L 62 95.074219 Z M 62 80 " clip-rule="nonzero"/></clipPath><clipPath id="5b5df975d0"><path d="M 23 7 L 38 7 L 38 22 L 23 22 Z M 23 7 " clip-rule="nonzero"/></clipPath><clipPath id="15fabe388e"><path d="M 89.578125 16.488281 L 6.925781 -8.625 L -21.324219 84.359375 L 61.328125 109.472656 Z M 89.578125 16.488281 " clip-rule="nonzero"/></clipPath><clipPath id="90011547aa"><path d="M 65 45 L 81 45 L 81 61 L 65 61 Z M 65 45 " clip-rule="nonzero"/></clipPath><clipPath id="81be083546"><path d="M 132.554688 55.058594 L 49.902344 29.945312 L 21.652344 122.929688 L 104.304688 148.042969 Z M 132.554688 55.058594 " clip-rule="nonzero"/></clipPath><clipPath id="4798f2a695"><path d="M 63.355469 61 L 82.792969 61 L 82.792969 61.515625 L 63.355469 61.515625 Z M 63.355469 61 " clip-rule="nonzero"/></clipPath><clipPath id="aa13b0937f"><path d="M 132.554688 55.058594 L 49.902344 29.945312 L 21.652344 122.929688 L 104.304688 148.042969 Z M 132.554688 55.058594 " clip-rule="nonzero"/></clipPath><clipPath id="bb3f6551b0"><path d="M 61 80 L 77 80 L 77 96 L 61 96 Z M 61 80 " clip-rule="nonzero"/></clipPath><clipPath id="d486a1724d"><path d="M 128.019531 90.257812 L 45.367188 65.148438 L 17.117188 158.132812 L 99.769531 183.242188 Z M 128.019531 90.257812 " clip-rule="nonzero"/></clipPath><clipPath id="d2de6ccf1a"><path d="M 58.820312 96 L 78.257812 96 L 78.257812 96.714844 L 58.820312 96.714844 Z M 58.820312 96 " clip-rule="nonzero"/></clipPath><clipPath id="6f33e179c8"><path d="M 128.019531 90.257812 L 45.367188 65.148438 L 17.117188 158.132812 L 99.769531 183.242188 Z M 128.019531 90.257812 " clip-rule="nonzero"/></clipPath></defs><g clip-path="url(#6bdef23ec6)"><path fill="#000000" d="M 69.460938 31.214844 C 60.898438 31.214844 53.933594 24.25 53.933594 15.6875 C 53.933594 7.128906 60.898438 0.164062 69.460938 0.164062 C 78.019531 0.164062 84.984375 7.128906 84.984375 15.6875 C 84.984375 24.25 78.019531 31.214844 69.460938 31.214844 Z M 69.460938 4.445312 C 63.261719 4.445312 58.21875 9.488281 58.21875 15.6875 C 58.21875 21.886719 63.261719 26.929688 69.460938 26.929688 C 75.660156 26.929688 80.703125 21.886719 80.703125 15.6875 C 80.703125 9.488281 75.65625 4.445312 69.460938 4.445312 Z M 69.460938 4.445312 " fill-opacity="1" fill-rule="nonzero"/></g><path fill="#000000" d="M 13.378906 56.210938 C 20.722656 56.210938 26.699219 62.1875 26.699219 69.535156 C 26.699219 76.878906 20.722656 82.855469 13.378906 82.855469 C 6.03125 82.855469 0.0546875 76.878906 0.0546875 69.535156 C 0.0546875 62.1875 6.03125 56.210938 13.378906 56.210938 Z M 13.378906 78.574219 C 18.363281 78.574219 22.417969 74.519531 22.417969 69.535156 C 22.417969 64.550781 18.363281 60.496094 13.378906 60.496094 C 8.390625 60.496094 4.335938 64.550781 4.335938 69.535156 C 4.335938 74.515625 8.390625 78.574219 13.378906 78.574219 Z M 13.378906 78.574219 " fill-opacity="1" fill-rule="nonzero"/><path fill="#ffffff" d="M 28.671875 22.164062 C 24.710938 22.164062 21.488281 18.941406 21.488281 14.980469 C 21.488281 11.015625 24.710938 7.792969 28.671875 7.792969 C 32.632812 7.792969 35.859375 11.015625 35.859375 14.980469 C 35.859375 18.941406 32.636719 22.164062 28.671875 22.164062 Z M 28.671875 12.078125 C 27.070312 12.078125 25.769531 13.378906 25.769531 14.980469 C 25.769531 16.578125 27.070312 17.878906 28.671875 17.878906 C 30.273438 17.878906 31.574219 16.578125 31.574219 14.980469 C 31.574219 13.378906 30.273438 12.078125 28.671875 12.078125 Z M 28.671875 12.078125 " fill-opacity="1" fill-rule="nonzero"/><path fill="#ffffff" d="M 66.195312 53.308594 C 66.195312 49.347656 69.417969 46.125 73.378906 46.125 C 77.339844 46.125 80.566406 49.347656 80.566406 53.308594 C 80.566406 57.269531 77.339844 60.496094 73.378906 60.496094 C 69.417969 60.496094 66.195312 57.269531 66.195312 53.308594 Z M 76.28125 53.308594 C 76.28125 51.710938 74.980469 50.410156 73.378906 50.410156 C 71.78125 50.410156 70.480469 51.710938 70.480469 53.308594 C 70.480469 54.910156 71.78125 56.210938 73.378906 56.210938 C 74.980469 56.210938 76.28125 54.910156 76.28125 53.308594 Z M 76.28125 53.308594 " fill-opacity="1" fill-rule="nonzero"/><g clip-path="url(#331e577273)"><path fill="#ffffff" d="M 69.460938 80.992188 C 73.421875 80.992188 76.644531 84.214844 76.644531 88.175781 C 76.644531 92.136719 73.421875 95.359375 69.460938 95.359375 C 65.5 95.359375 62.273438 92.136719 62.273438 88.175781 C 62.273438 84.214844 65.5 80.992188 69.460938 80.992188 Z M 69.460938 91.078125 C 71.058594 91.078125 72.363281 89.777344 72.363281 88.175781 C 72.363281 86.574219 71.058594 85.273438 69.460938 85.273438 C 67.859375 85.273438 66.558594 86.574219 66.558594 88.175781 C 66.558594 89.777344 67.859375 91.078125 69.460938 91.078125 Z M 69.460938 91.078125 " fill-opacity="1" fill-rule="nonzero"/></g><path fill="#000000" d="M 24.671875 59.71875 C 23.914062 58.808594 24.042969 57.457031 24.953125 56.703125 L 31.460938 51.316406 C 30.828125 50.027344 30.460938 48.585938 30.460938 47.054688 C 30.460938 43.589844 32.292969 40.550781 35.035156 38.832031 L 30.574219 25.625 C 30.195312 24.503906 30.796875 23.289062 31.917969 22.910156 C 33.042969 22.53125 34.257812 23.132812 34.632812 24.253906 L 39.078125 37.414062 C 39.4375 37.375 39.800781 37.347656 40.167969 37.347656 C 41.996094 37.347656 43.703125 37.867188 45.164062 38.75 L 53.324219 28.738281 C 54.074219 27.820312 55.421875 27.683594 56.335938 28.429688 C 57.253906 29.179688 57.390625 30.527344 56.644531 31.445312 L 48.269531 41.722656 C 49.199219 43.125 49.761719 44.78125 49.851562 46.5625 L 63.257812 49.519531 C 64.414062 49.777344 65.144531 50.917969 64.886719 52.074219 C 64.667969 53.074219 63.78125 53.753906 62.796875 53.753906 C 62.644531 53.753906 62.488281 53.738281 62.335938 53.703125 L 49.125 50.789062 C 48.535156 52.199219 47.621094 53.4375 46.476562 54.417969 L 64.503906 78.183594 C 65.21875 79.125 65.035156 80.46875 64.089844 81.183594 C 63.703125 81.476562 63.25 81.621094 62.796875 81.621094 C 62.148438 81.621094 61.511719 81.328125 61.089844 80.773438 L 42.628906 56.4375 C 41.839844 56.644531 41.019531 56.765625 40.167969 56.765625 C 37.894531 56.765625 35.800781 55.972656 34.144531 54.65625 L 27.6875 60.003906 C 27.285156 60.335938 26.800781 60.496094 26.320312 60.496094 C 25.707031 60.496094 25.09375 60.230469 24.671875 59.71875 Z M 40.167969 52.480469 C 43.160156 52.480469 45.589844 50.046875 45.589844 47.054688 C 45.589844 44.066406 43.160156 41.632812 40.167969 41.632812 C 37.179688 41.632812 34.746094 44.066406 34.746094 47.054688 C 34.746094 50.046875 37.179688 52.480469 40.167969 52.480469 Z M 40.167969 52.480469 " fill-opacity="1" fill-rule="nonzero"/><g clip-path="url(#5b5df975d0)"><g clip-path="url(#15fabe388e)"><path fill="#ffec9d" d="M 28.195312 21.375 C 24.335938 20.199219 22.148438 16.105469 23.320312 12.242188 C 24.496094 8.382812 28.589844 6.195312 32.453125 7.367188 C 36.3125 8.539062 38.5 12.636719 37.328125 16.5 C 36.15625 20.359375 32.058594 22.546875 28.195312 21.375 Z M 31.183594 11.542969 C 29.625 11.070312 27.972656 11.953125 27.496094 13.511719 C 27.023438 15.070312 27.90625 16.722656 29.464844 17.199219 C 31.027344 17.671875 32.679688 16.789062 33.152344 15.230469 C 33.625 13.671875 32.742188 12.015625 31.183594 11.542969 Z M 31.183594 11.542969 " fill-opacity="1" fill-rule="nonzero"/></g></g><g clip-path="url(#90011547aa)"><g clip-path="url(#81be083546)"><path fill="#cb6ce6" d="M 71.171875 59.945312 C 67.3125 58.773438 65.125 54.675781 66.296875 50.8125 C 67.46875 46.953125 71.566406 44.765625 75.429688 45.9375 C 79.289062 47.109375 81.476562 51.207031 80.304688 55.070312 C 79.132812 58.929688 75.035156 61.117188 71.171875 59.945312 Z M 74.160156 50.113281 C 72.601562 49.640625 70.945312 50.523438 70.472656 52.082031 C 70 53.640625 70.882812 55.296875 72.441406 55.769531 C 74 56.242188 75.65625 55.359375 76.128906 53.800781 C 76.601562 52.242188 75.71875 50.585938 74.160156 50.113281 Z M 74.160156 50.113281 " fill-opacity="1" fill-rule="nonzero"/></g></g><g clip-path="url(#4798f2a695)"><g clip-path="url(#aa13b0937f)"><path fill="#000000" d="M 56.152344 95.363281 C 55.6875 94.25 56.210938 92.972656 57.320312 92.507812 L 65.257812 89.183594 C 65.023438 87.742188 65.09375 86.226562 65.546875 84.734375 C 66.574219 81.355469 69.257812 78.9375 72.4375 78.074219 L 72.003906 63.882812 C 71.964844 62.679688 72.910156 61.671875 74.117188 61.632812 C 75.324219 61.597656 76.328125 62.542969 76.363281 63.746094 L 76.796875 77.890625 C 77.160156 77.957031 77.519531 78.039062 77.882812 78.148438 C 79.664062 78.691406 81.171875 79.699219 82.335938 80.992188 L 93.253906 73.652344 C 94.253906 72.980469 95.609375 73.246094 96.28125 74.246094 C 96.953125 75.246094 96.6875 76.601562 95.6875 77.273438 L 84.484375 84.808594 C 84.972656 86.453125 85.03125 88.234375 84.589844 89.996094 L 96.78125 96.851562 C 97.832031 97.441406 98.203125 98.773438 97.613281 99.820312 C 97.101562 100.730469 96.039062 101.132812 95.078125 100.839844 C 94.929688 100.796875 94.785156 100.734375 94.644531 100.652344 L 82.632812 93.902344 C 81.640625 95.101562 80.378906 96.039062 78.976562 96.65625 L 89.507812 125.15625 C 89.925781 126.285156 89.347656 127.542969 88.214844 127.960938 C 87.753906 128.128906 87.265625 128.132812 86.828125 128 C 86.195312 127.808594 85.660156 127.335938 85.414062 126.667969 L 74.628906 97.480469 C 73.796875 97.449219 72.960938 97.324219 72.132812 97.074219 C 69.914062 96.398438 68.109375 95.007812 66.886719 93.234375 L 59.007812 96.535156 C 58.519531 96.738281 58 96.753906 57.53125 96.609375 C 56.929688 96.425781 56.414062 95.988281 56.152344 95.363281 Z M 73.402344 92.894531 C 76.316406 93.78125 79.40625 92.132812 80.292969 89.214844 C 81.175781 86.300781 79.527344 83.210938 76.613281 82.324219 C 73.699219 81.441406 70.605469 83.089844 69.722656 86.003906 C 68.835938 88.917969 70.488281 92.011719 73.402344 92.894531 Z M 73.402344 92.894531 " fill-opacity="1" fill-rule="nonzero"/></g></g><g clip-path="url(#bb3f6551b0)"><g clip-path="url(#d486a1724d)"><path fill="#ff6ece" d="M 66.636719 95.144531 C 62.777344 93.972656 60.589844 89.875 61.761719 86.015625 C 62.933594 82.152344 67.03125 79.964844 70.894531 81.140625 C 74.753906 82.3125 76.941406 86.410156 75.769531 90.269531 C 74.597656 94.132812 70.5 96.320312 66.636719 95.144531 Z M 69.625 85.316406 C 68.066406 84.839844 66.410156 85.722656 65.9375 87.28125 C 65.464844 88.84375 66.347656 90.496094 67.90625 90.96875 C 69.464844 91.445312 71.121094 90.5625 71.59375 89 C 72.066406 87.441406 71.183594 85.789062 69.625 85.316406 Z M 69.625 85.316406 " fill-opacity="1" fill-rule="nonzero"/></g></g><g clip-path="url(#d2de6ccf1a)"><g clip-path="url(#6f33e179c8)"><path fill="#000000" d="M 51.617188 130.5625 C 51.152344 129.453125 51.675781 128.175781 52.785156 127.710938 L 60.722656 124.386719 C 60.488281 122.941406 60.558594 121.429688 61.011719 119.9375 C 62.039062 116.558594 64.722656 114.140625 67.902344 113.277344 L 67.46875 99.082031 C 67.429688 97.878906 68.375 96.871094 69.582031 96.835938 C 70.789062 96.800781 71.792969 97.746094 71.828125 98.949219 L 72.261719 113.089844 C 72.625 113.15625 72.984375 113.242188 73.347656 113.351562 C 75.128906 113.890625 76.636719 114.902344 77.800781 116.195312 L 88.71875 108.855469 C 89.71875 108.183594 91.074219 108.445312 91.746094 109.445312 C 92.417969 110.445312 92.152344 111.800781 91.152344 112.476562 L 79.949219 120.011719 C 80.4375 121.652344 80.496094 123.433594 80.054688 125.199219 L 92.246094 132.050781 C 93.296875 132.640625 93.667969 133.972656 93.078125 135.023438 C 92.566406 135.933594 91.503906 136.332031 90.542969 136.042969 C 90.394531 135.996094 90.25 135.933594 90.109375 135.855469 L 78.097656 129.105469 C 77.105469 130.304688 75.84375 131.238281 74.441406 131.855469 L 84.972656 160.355469 C 85.390625 161.488281 84.8125 162.742188 83.679688 163.160156 C 83.21875 163.332031 82.730469 163.335938 82.292969 163.203125 C 81.660156 163.011719 81.125 162.535156 80.878906 161.871094 L 70.09375 132.683594 C 69.261719 132.652344 68.425781 132.527344 67.597656 132.273438 C 65.378906 131.601562 63.574219 130.207031 62.351562 128.433594 L 54.472656 131.734375 C 53.984375 131.941406 53.464844 131.953125 52.996094 131.8125 C 52.394531 131.628906 51.878906 131.1875 51.617188 130.5625 Z M 68.867188 128.097656 C 71.78125 128.984375 74.871094 127.332031 75.757812 124.417969 C 76.640625 121.503906 74.992188 118.410156 72.078125 117.527344 C 69.164062 116.640625 66.070312 118.292969 65.1875 121.207031 C 64.300781 124.121094 65.953125 127.210938 68.867188 128.097656 Z M 68.867188 128.097656 " fill-opacity="1" fill-rule="nonzero"/></g></g></svg>